ply
format ascii 1.0
element vertex 292
property float x
property float y
property float z
element face 580
property list uchar int vertex_indices
end_header
-0.049254 0.047263 0.000789
-0.048741 0.002914 -0.116757
-0.048601 -0.019611 -0.009902
0.048810 0.000784 -0.116757
0.049244 0.047263 -0.000771
0.048591 -0.019611 -0.009902
-0.049030 0.064026 0.000785
-0.015369 0.066341 -0.001418
-0.002576 0.066341 0.015224
0.014975 0.066341 0.003710
-0.014892 -0.018612 -0.118770
-0.023882 0.000056 -0.118770
-0.001789 0.023866 -0.118770
-0.045563 -0.017490 -0.116757
-0.048690 -0.008594 0.002100
-0.001789 -0.023755 -0.118770
0.032389 -0.036469 -0.116757
0.035203 -0.049179 -0.003247
0.026322 -0.041058 -0.116757
0.019106 -0.044868 -0.116757
0.029141 -0.052414 -0.004028
0.039330 -0.045101 -0.007372
0.048680 -0.008594 0.002100
-0.047530 0.064026 0.012070
-0.047441 0.064328 -0.011054
-0.044973 0.064328 -0.018711
-0.044722 0.019647 -0.116757
-0.047799 0.010014 -0.116757
-0.040236 0.027712 -0.116757
-0.000005 0.048876 -0.116757
-0.000925 0.064328 -0.048691
0.014938 0.064328 -0.046351
-0.014892 0.018724 -0.118770
-0.022395 0.043439 -0.116757
-0.013816 0.046882 -0.116757
0.017498 0.016297 -0.118770
0.035729 0.033320 -0.116757
0.040213 0.027731 -0.116757
0.044726 0.019615 -0.116757
0.009430 -0.056871 -0.000398
0.018674 -0.055835 0.000869
0.014353 -0.056633 0.006460
0.023468 -0.054810 0.007586
-0.000005 -0.048764 -0.116757
0.009744 -0.047781 -0.116757
-0.048669 -0.003848 -0.116757
-0.047686 -0.027387 -0.017175
-0.041515 -0.025642 -0.116757
-0.037019 -0.031778 -0.116757
-0.048058 -0.020313 0.003594
-0.028317 -0.030284 0.037047
-0.031211 -0.022146 0.036511
-0.034526 -0.026213 0.032926
-0.037242 -0.013704 0.031201
-0.032478 -0.010441 0.036217
-0.039340 -0.045101 -0.007372
-0.033833 -0.035145 -0.116757
-0.035213 -0.049179 -0.003247
-0.024021 -0.042449 -0.116757
-0.029631 -0.052375 -0.002542
-0.014781 -0.046475 -0.116757
-0.023057 -0.054907 0.001307
-0.036544 -0.048511 0.002636
0.027971 -0.052366 0.014228
0.031731 -0.051680 0.005350
0.035083 -0.049126 0.009595
0.038711 -0.029685 -0.116757
0.036534 -0.048511 0.002636
0.043755 -0.021589 -0.116757
0.044471 -0.037367 -0.009290
0.043852 -0.039137 -0.001897
-0.048755 0.049229 0.007099
-0.048789 0.064026 -0.004912
-0.032416 0.036566 -0.116757
-0.037433 0.031402 -0.116757
-0.016688 0.064328 -0.045754
-0.030643 0.064328 -0.037857
-0.009281 0.047987 -0.116757
-0.041278 0.064328 -0.025857
0.004805 0.066341 -0.014653
0.044224 0.064328 -0.020397
0.029181 0.064328 -0.038988
0.013796 0.046885 -0.116757
0.022413 0.043425 -0.116757
0.032180 0.036765 -0.116757
0.014799 0.064026 0.046752
0.014867 0.047263 0.046965
0.020218 0.047263 0.044921
0.036448 0.064328 0.032316
0.046329 0.064026 0.016047
0.048779 0.064026 0.004929
0.046979 0.064328 -0.012838
0.048599 0.064026 -0.006454
0.049021 0.064026 -0.000767
0.047784 0.010039 -0.116757
0.023606 -0.003503 -0.118770
0.047084 -0.012831 -0.116757
-0.033227 -0.046009 0.022056
-0.031858 -0.049359 0.017406
-0.027883 -0.049013 0.023268
-0.004048 -0.034335 0.044066
-0.000005 -0.041571 0.040783
0.004038 -0.034335 0.044066
0.013814 -0.048332 0.032973
0.018853 -0.050061 0.028291
0.022894 -0.046021 0.031153
0.015008 -0.008608 0.046498
0.004803 -0.057303 0.010756
0.004427 -0.047589 0.035998
-0.000005 -0.050540 0.032907
0.009233 -0.050105 0.032222
-0.018684 -0.055835 0.000869
-0.019293 -0.053887 0.019554
-0.019252 -0.055276 0.013362
-0.009706 -0.056061 0.017887
-0.047027 -0.013073 -0.116757
-0.045810 -0.034517 -0.008446
-0.046279 -0.032752 -0.000042
-0.043862 -0.039137 -0.001897
-0.043251 -0.039936 -0.007193
-0.046537 -0.025285 0.009819
-0.044395 -0.023763 0.017835
-0.045303 -0.013359 0.017582
-0.042262 -0.020726 0.023195
-0.040520 -0.032435 0.022892
-0.042525 -0.009542 0.023726
-0.036573 -0.035470 0.027597
-0.037699 -0.029554 0.028494
-0.033280 -0.032514 0.032462
-0.027938 -0.039984 -0.116757
-0.031996 -0.051483 0.006591
0.027874 -0.049013 0.023268
0.031373 -0.044825 0.025849
0.027164 -0.053663 0.001630
0.048097 -0.008289 -0.116757
0.047676 -0.027387 -0.017175
0.046434 -0.032880 -0.007560
0.048056 -0.025175 -0.003938
0.046724 -0.030528 0.001767
0.020331 -0.030296 0.041271
0.017161 -0.038697 0.039270
0.025399 -0.036045 0.036755
0.046541 0.047263 0.016120
0.044356 0.047263 0.021415
-0.023845 0.064026 0.042854
-0.023954 0.047263 0.043050
-0.018710 0.064026 0.045332
-0.013383 0.047263 0.047413
-0.013322 0.064026 0.047197
0.000915 0.064328 0.048709
-0.028508 0.039692 -0.116757
0.006792 0.048401 -0.116757
0.040262 0.064328 -0.027398
0.003621 0.064026 0.048906
0.009273 0.064026 0.048155
0.020126 0.064026 0.044717
0.025180 0.064026 0.042078
0.025295 0.047263 0.042270
0.030030 0.047263 0.039047
0.031201 -0.022146 0.036511
0.034516 -0.026213 0.032926
0.032468 -0.010441 0.036217
0.034203 0.064026 0.035136
0.037232 -0.013704 0.031201
0.038223 0.047263 0.031068
0.029894 0.064026 0.038870
0.043685 -0.029501 0.017159
0.046204 -0.021719 0.013025
0.044817 -0.017061 0.018302
0.047236 -0.004932 0.012234
0.047721 -0.013226 0.008997
0.047878 0.064026 0.010560
0.011934 -0.020622 -0.118770
-0.023807 -0.052305 0.020071
-0.014257 -0.051833 0.027667
-0.027328 -0.045548 0.028642
-0.032599 -0.041595 0.027898
-0.018863 -0.050061 0.028291
-0.018268 -0.046236 0.033391
-0.000005 -0.053655 0.027674
-0.009243 -0.050105 0.032222
-0.008888 -0.045805 0.036908
-0.008525 -0.040611 0.040571
-0.012487 -0.035461 0.042171
-0.012075 -0.029545 0.044281
0.008352 -0.037813 0.042035
0.003863 -0.022307 0.047364
0.012065 -0.029545 0.044281
-0.000005 -0.046783 0.036993
0.017902 -0.043936 0.035617
-0.009440 -0.056871 -0.000398
-0.000005 -0.057455 0.004593
0.004767 -0.055330 0.022730
0.009508 -0.053260 0.026772
0.014553 -0.055135 0.018820
0.019209 -0.052855 0.022568
0.004810 -0.056676 0.016781
0.014521 -0.056238 0.012659
0.023755 -0.053994 0.013889
-0.005185 -0.048489 -0.116757
-0.009687 -0.056905 0.011785
-0.048066 -0.025175 -0.003938
-0.044322 -0.035770 0.008344
-0.041172 -0.043392 0.003971
-0.039842 -0.043493 0.012109
-0.037437 -0.047273 0.008462
-0.035585 -0.047271 0.015254
-0.039798 -0.040952 0.017185
-0.047246 -0.004932 0.012234
-0.046017 0.047263 0.017586
-0.043467 0.064026 0.022705
-0.038746 -0.023550 0.028394
-0.030018 -0.038273 0.032550
-0.040724 0.047263 0.027723
-0.037231 0.047263 0.032263
-0.023478 -0.054810 0.007586
0.023797 -0.052305 0.020071
0.031848 -0.049359 0.017406
0.046161 -0.028213 0.009198
0.026435 -0.041180 0.033195
0.033271 -0.032514 0.032462
0.028307 -0.030284 0.037047
0.035138 -0.041260 0.025275
0.037808 -0.042763 0.019203
0.039363 -0.037725 0.021681
0.040510 -0.032435 0.022892
0.037427 -0.047274 0.008462
0.045307 -0.035488 0.000833
0.037689 -0.029554 0.028494
0.038050 0.064026 0.030927
0.041382 0.064026 0.026300
0.044154 0.064026 0.021318
-0.025168 -0.000793 0.041987
-0.018814 -0.012195 0.044850
-0.011360 -0.011108 0.047418
-0.011175 0.001365 0.047774
-0.007754 0.064026 0.048424
0.042515 -0.009542 0.023726
0.049002 0.047263 0.004952
-0.027980 -0.052366 0.014228
-0.009518 -0.053260 0.026772
-0.004777 -0.055330 0.022730
-0.017540 -0.041405 0.037579
-0.021157 -0.036079 0.038893
-0.003948 -0.028407 0.045995
0.012477 -0.035461 0.042171
0.011518 -0.017324 0.046822
0.008692 -0.043292 0.038871
0.022634 -0.015566 0.042757
0.021944 -0.003474 0.043762
-0.032706 -0.050578 0.010874
-0.042764 -0.034660 0.016020
-0.037818 -0.042763 0.019203
-0.045808 0.064026 0.017506
-0.040539 0.064026 0.027597
-0.037062 0.064026 0.032116
-0.033084 0.064026 0.036201
-0.028789 0.047263 0.039978
-0.028658 0.064026 0.039797
0.033253 -0.046562 0.021104
0.048048 -0.020313 0.003594
0.029443 -0.035734 0.034296
0.023954 -0.027490 0.040282
0.039833 -0.043493 0.012109
0.041518 -0.039273 0.014462
0.041162 -0.043392 0.003971
0.036564 -0.035470 0.027597
-0.026495 -0.018665 0.040252
-0.015539 -0.020929 0.045121
-0.000005 -0.017292 0.048252
-0.002090 0.047263 0.049220
0.003746 -0.003494 0.048882
0.003637 0.047263 0.049129
0.011166 0.001365 0.047774
-0.002081 0.064026 0.048996
0.038736 -0.023550 0.028394
-0.022501 -0.043843 0.033469
0.015530 -0.020929 0.045121
0.012989 -0.041107 0.039268
0.027701 -0.008836 0.040096
-0.037365 -0.039434 0.023765
-0.035212 0.064328 0.033670
0.035575 -0.047271 0.015254
0.032083 -0.039084 0.030296
0.044312 -0.035770 0.008344
-0.023964 -0.027490 0.040282
-0.007728 -0.019824 0.047286
-0.003756 -0.003494 0.048882
0.007606 -0.013596 0.048003
0.042252 -0.020726 0.023195
-0.025933 -0.038695 0.035106
-0.015954 -0.026997 0.043790
3 0 1 2
3 3 4 5
3 1 0 6
3 7 8 9
3 10 11 12
3 11 10 13
3 0 2 14
3 10 12 15
3 16 17 18
3 19 18 20
3 18 17 20
3 17 16 21
3 5 4 22
3 6 23 24
3 23 7 24
3 7 25 24
3 26 11 27
3 11 1 27
3 24 25 28
3 26 24 28
3 29 30 31
3 26 28 32
3 11 26 32
3 33 34 32
3 34 12 32
3 12 11 32
3 15 12 35
3 36 37 35
3 37 38 35
3 39 40 41
3 40 42 41
3 43 15 44
3 39 43 44
3 40 39 44
3 1 11 45
3 2 1 45
3 46 2 45
3 13 10 47
3 10 48 47
3 14 2 49
3 50 51 52
3 53 52 54
3 52 51 54
3 55 48 56
3 48 10 56
3 57 55 56
3 57 58 59
3 59 58 60
3 58 10 60
3 61 59 60
3 10 15 60
3 55 57 62
3 63 42 64
3 20 17 64
3 65 63 64
3 21 16 66
3 64 17 67
3 65 64 67
3 17 21 67
3 66 68 69
3 21 66 69
3 70 21 69
3 0 14 71
3 6 0 71
3 23 6 71
3 6 24 72
3 1 6 72
3 27 1 72
3 24 26 72
3 26 27 72
3 25 73 74
3 28 25 74
3 73 32 74
3 32 28 74
3 30 29 75
3 76 75 77
3 75 29 77
3 34 76 77
3 12 34 77
3 29 12 77
3 25 7 78
3 76 34 78
3 7 76 78
3 34 33 78
3 76 7 79
3 75 76 79
3 7 9 79
3 30 75 79
3 31 30 79
3 9 80 79
3 81 31 79
3 35 12 82
3 83 35 82
3 35 83 84
3 83 80 84
3 36 35 84
3 80 36 84
3 85 86 87
3 9 8 88
3 9 88 89
3 9 90 91
3 36 80 91
3 37 36 91
3 80 9 91
3 38 37 91
3 92 38 91
3 91 90 93
3 92 91 93
3 90 4 93
3 4 3 93
3 35 38 94
3 38 92 94
3 92 93 94
3 93 3 94
3 15 35 95
3 35 94 95
3 68 66 95
3 96 68 95
3 94 3 95
3 97 98 99
3 100 101 102
3 103 104 105
3 87 86 106
3 39 41 107
3 108 109 110
3 103 108 110
3 104 103 110
3 61 60 111
3 112 113 114
3 45 11 115
3 46 45 115
3 116 46 115
3 13 116 115
3 11 13 115
3 46 116 117
3 116 118 117
3 116 13 119
3 13 47 119
3 118 116 119
3 47 48 119
3 48 55 119
3 120 121 122
3 122 121 123
3 121 124 123
3 125 122 123
3 124 126 127
3 127 126 128
3 52 127 128
3 50 52 128
3 57 56 129
3 56 10 129
3 58 57 129
3 10 58 129
3 62 57 130
3 57 59 130
3 105 104 131
3 132 105 131
3 44 19 133
3 40 44 133
3 19 20 133
3 42 40 133
3 20 64 133
3 64 42 133
3 95 3 134
3 96 95 134
3 135 96 134
3 5 135 134
3 3 5 134
3 68 96 136
3 70 69 136
3 69 68 136
3 96 135 136
3 136 135 137
3 138 136 137
3 135 5 137
3 139 140 141
3 142 89 143
3 144 145 146
3 147 148 146
3 146 148 149
3 88 8 149
3 25 78 150
3 78 33 150
3 73 25 150
3 33 32 150
3 32 73 150
3 12 29 151
3 29 31 151
3 82 12 151
3 31 81 151
3 81 82 151
3 79 80 152
3 82 81 152
3 83 82 152
3 81 79 152
3 80 83 152
3 149 153 154
3 85 149 154
3 86 85 154
3 149 85 155
3 85 87 155
3 87 156 155
3 156 88 155
3 88 149 155
3 156 87 157
3 158 156 157
3 159 160 161
3 162 158 161
3 160 163 161
3 163 164 161
3 164 162 161
3 156 158 165
3 158 162 165
3 162 88 165
3 88 156 165
3 166 167 168
3 167 169 168
3 142 143 168
3 169 142 168
3 169 167 170
3 9 89 171
3 89 142 171
3 142 169 171
3 90 9 171
3 15 95 172
3 44 15 172
3 19 44 172
3 95 66 172
3 18 19 172
3 16 18 172
3 66 16 172
3 99 98 173
3 112 174 173
3 97 99 175
3 176 97 175
3 99 173 177
3 175 99 177
3 173 174 177
3 178 175 177
3 110 109 179
3 177 174 180
3 178 177 180
3 181 178 180
3 179 109 180
3 181 101 182
3 100 183 182
3 101 100 182
3 183 100 184
3 102 101 185
3 186 102 187
3 180 109 188
3 181 180 188
3 109 108 188
3 101 181 188
3 103 105 189
3 190 43 191
3 43 39 191
3 39 107 191
3 179 192 193
3 192 194 193
3 110 179 193
3 194 195 193
3 104 110 193
3 195 104 193
3 194 192 196
3 107 41 197
3 196 107 197
3 41 42 197
3 194 196 197
3 197 42 198
3 194 197 198
3 42 63 198
3 111 60 199
3 60 15 199
3 190 111 199
3 15 43 199
3 43 190 199
3 111 190 200
3 114 113 200
3 190 191 200
3 191 107 200
3 107 196 200
3 196 114 200
3 2 46 201
3 49 2 201
3 46 117 201
3 120 49 201
3 117 120 201
3 120 117 202
3 117 118 202
3 202 118 203
3 118 119 203
3 119 55 203
3 204 202 203
3 55 62 203
3 205 204 203
3 62 205 203
3 204 205 206
3 98 97 206
3 202 204 207
3 71 14 208
3 14 49 208
3 49 120 208
3 23 71 208
3 120 122 208
3 23 208 209
3 208 122 209
3 122 125 209
3 125 210 209
3 125 123 211
3 123 124 211
3 124 127 211
3 127 52 211
3 53 125 211
3 52 53 211
3 126 176 212
3 128 126 212
3 176 175 212
3 50 128 212
3 210 125 213
3 125 53 213
3 213 53 214
3 53 54 214
3 130 59 215
3 59 61 215
3 61 111 215
3 111 200 215
3 200 113 215
3 194 198 216
3 104 195 216
3 195 194 216
3 198 63 216
3 131 104 216
3 216 63 217
3 131 216 217
3 63 65 217
3 167 166 218
3 140 189 219
3 189 105 219
3 105 132 219
3 141 140 219
3 220 160 221
3 160 159 221
3 222 223 224
3 166 225 224
3 65 67 226
3 70 136 227
3 136 138 227
3 160 220 228
3 162 164 229
3 88 162 229
3 164 230 229
3 230 88 229
3 88 230 231
3 230 143 231
3 143 89 231
3 89 88 231
3 145 232 233
3 146 145 233
3 147 146 233
3 233 234 235
3 147 233 235
3 147 235 236
3 148 147 236
3 149 148 236
3 164 163 237
3 230 164 237
3 143 230 237
3 168 143 237
3 169 170 238
3 170 22 238
3 171 169 238
3 22 4 238
3 90 171 238
3 4 90 238
3 130 215 239
3 173 98 239
3 215 113 239
3 112 173 239
3 113 112 239
3 112 114 240
3 174 112 240
3 180 174 240
3 179 180 240
3 114 196 241
3 240 114 241
3 179 240 241
3 192 179 241
3 196 192 241
3 178 181 242
3 183 243 242
3 181 182 242
3 182 183 242
3 184 100 244
3 100 102 244
3 102 186 244
3 102 185 245
3 187 102 245
3 140 139 245
3 139 187 245
3 186 187 246
3 188 108 247
3 101 188 247
3 108 103 247
3 185 101 247
3 103 189 247
3 106 248 249
3 87 106 249
3 157 87 249
3 205 62 250
3 62 130 250
3 206 205 250
3 130 239 250
3 98 206 250
3 239 98 250
3 120 202 251
3 121 120 251
3 202 207 251
3 124 121 251
3 207 124 251
3 204 206 252
3 207 204 252
3 206 97 252
3 23 209 253
3 209 210 253
3 7 23 253
3 210 213 254
3 213 214 254
3 214 255 254
3 214 54 256
3 255 214 256
3 256 54 257
3 54 232 257
3 258 256 257
3 232 145 257
3 145 144 257
3 144 258 257
3 131 217 259
3 132 131 259
3 222 132 259
3 223 222 259
3 218 138 260
3 167 218 260
3 138 137 260
3 170 167 260
3 137 5 260
3 5 22 260
3 22 170 260
3 141 219 261
3 221 141 261
3 220 221 261
3 139 141 262
3 141 221 262
3 221 159 262
3 159 248 262
3 223 263 264
3 224 223 264
3 166 224 264
3 67 21 265
3 226 67 265
3 21 70 265
3 263 226 265
3 70 227 265
3 222 224 266
3 228 220 266
3 224 225 266
3 225 228 266
3 54 51 267
3 51 50 267
3 232 54 267
3 233 232 267
3 234 233 268
3 244 186 269
3 270 271 272
3 153 270 272
3 154 153 272
3 272 271 273
3 154 272 273
3 86 154 273
3 106 86 273
3 236 270 274
3 270 153 274
3 149 236 274
3 153 149 274
3 160 228 275
3 163 160 275
3 228 225 275
3 237 163 275
3 212 175 276
3 175 178 276
3 178 242 276
3 246 187 277
3 187 139 277
3 106 246 277
3 139 262 277
3 248 106 277
3 262 248 277
3 185 247 278
3 247 189 278
3 245 185 278
3 140 245 278
3 189 140 278
3 249 248 279
3 248 159 279
3 157 249 279
3 158 157 279
3 159 161 279
3 161 158 279
3 124 207 280
3 207 252 280
3 252 97 280
3 126 124 280
3 97 176 280
3 176 126 280
3 253 210 281
3 210 254 281
3 254 255 281
3 255 256 281
3 256 258 281
3 258 144 281
3 144 146 281
3 146 149 281
3 7 253 281
3 8 7 281
3 149 8 281
3 217 65 282
3 259 217 282
3 65 226 282
3 226 263 282
3 223 259 282
3 263 223 282
3 219 132 283
3 261 219 283
3 132 222 283
3 220 261 283
3 222 266 283
3 266 220 283
3 263 265 284
3 265 227 284
3 264 263 284
3 166 264 284
3 227 138 284
3 218 166 284
3 138 218 284
3 50 243 285
3 267 50 285
3 233 267 285
3 268 233 285
3 268 184 286
3 184 244 286
3 234 268 286
3 244 269 286
3 234 286 287
3 235 234 287
3 236 235 287
3 286 269 287
3 270 236 287
3 269 271 287
3 271 270 287
3 269 186 288
3 271 269 288
3 186 246 288
3 273 271 288
3 246 106 288
3 106 273 288
3 275 225 289
3 225 166 289
3 237 275 289
3 166 168 289
3 168 237 289
3 212 276 290
3 50 212 290
3 276 242 290
3 243 50 290
3 242 243 290
3 285 243 291
3 243 183 291
3 268 285 291
3 183 184 291
3 184 268 291
