ply
format ascii 1.0
element vertex 152
property float x
property float y
property float z
element face 300
property list uchar int vertex_indices
end_header
0.001078 -0.062333 -0.000261
-0.001080 0.062341 -0.000261
0.048445 -0.039239 -0.000261
-0.047061 -0.040892 -0.000261
-0.048448 0.039247 -0.000261
0.047058 0.040900 -0.000261
0.036124 -0.032006 0.150427
0.041555 -0.047814 0.008789
0.049227 -0.039872 0.008789
0.062189 0.012083 0.008789
0.059146 0.022699 0.008789
0.045783 0.015285 0.150427
-0.059149 -0.022691 0.000744
-0.059149 -0.022691 0.008789
-0.062191 -0.012075 0.008789
-0.020635 -0.059893 0.008789
-0.031677 -0.054860 0.008789
-0.030723 -0.055400 0.000744
-0.009921 -0.062567 0.008789
-0.015085 -0.045845 0.150427
-0.059899 0.020638 0.008789
-0.062572 0.009923 0.008789
-0.046650 0.012396 0.150427
-0.059899 0.020638 0.000744
-0.055406 0.030726 0.008789
-0.062338 -0.001075 -0.000261
0.062336 0.001083 -0.000261
0.063341 0.001101 0.000744
0.063341 0.001101 0.008789
0.032102 -0.053442 -0.000261
0.022333 -0.058204 -0.000261
0.032620 -0.054304 0.000744
0.041555 -0.047814 0.000744
0.012078 -0.062186 0.008789
0.022694 -0.059143 0.008789
0.012591 -0.046591 0.150427
0.022998 -0.042431 0.150427
0.032620 -0.054304 0.008789
0.047759 -0.000698 0.150929
0.003243 -0.047651 0.150929
0.031830 -0.035610 0.150929
0.009918 0.062575 0.008789
0.004102 0.048096 0.150427
0.015082 0.045854 0.150427
0.020633 0.059902 0.008789
0.041025 0.025431 0.150427
0.047817 0.041560 0.008789
0.034055 0.034207 0.150427
0.048073 0.004314 0.150427
0.048248 -0.001296 0.150427
-0.054309 -0.032617 0.008789
-0.041028 -0.025423 0.150427
-0.063344 -0.001092 0.000744
-0.062191 -0.012075 0.000744
-0.034058 -0.034199 0.150427
-0.047820 -0.041552 0.008789
-0.039877 -0.049224 0.008789
-0.024809 -0.056938 -0.000261
0.001095 -0.063338 0.000744
0.001095 -0.063338 0.008789
-0.045786 -0.015276 0.150427
-0.048075 -0.004306 0.150427
-0.037798 -0.030014 0.150427
-0.026948 -0.039949 0.150427
-0.004689 -0.048004 0.150427
-0.063344 -0.001092 0.008789
-0.047774 0.006897 0.150427
-0.044946 0.016176 0.150929
-0.049229 0.039880 0.008789
-0.049229 0.039880 0.000744
-0.022696 0.059152 0.008789
-0.032622 0.054312 0.008789
-0.017918 0.044823 0.150427
-0.062572 0.009923 0.000744
-0.058948 0.020311 -0.000261
-0.058210 -0.022331 -0.000261
0.020633 0.059902 0.000744
0.030720 0.055409 0.000744
0.025250 0.041139 0.150427
0.030720 0.055409 0.008789
0.030233 0.054529 -0.000261
0.039875 0.049232 0.000744
0.047817 0.041560 0.000744
0.059146 0.022699 0.000744
0.059896 -0.020630 0.008789
0.059896 -0.020630 0.000744
0.062569 -0.009915 0.008789
0.042533 -0.022812 0.150427
0.058946 -0.020302 -0.000261
0.055403 -0.030717 0.000744
0.011886 -0.061199 -0.000261
0.022694 -0.059143 0.000744
0.040895 -0.047055 -0.000261
0.049227 -0.039872 0.000744
0.018541 -0.044015 0.150929
0.027768 -0.039474 0.150427
0.019827 0.043460 0.150929
0.054307 0.032625 0.008789
-0.054309 -0.032617 0.000744
-0.039877 -0.049224 0.000744
-0.009763 -0.061573 -0.000261
-0.020306 -0.043784 0.150427
0.001506 -0.048239 0.150427
-0.047762 0.000706 0.150929
-0.042535 0.022820 0.150427
-0.036127 0.032014 0.150427
-0.055406 0.030726 0.000744
-0.041557 0.047822 0.008789
-0.032622 0.054312 0.000744
-0.031832 0.035618 0.150929
-0.012081 0.062194 0.008789
-0.061579 0.009766 -0.000261
-0.061204 -0.011883 -0.000261
-0.001098 0.063347 0.000744
0.009918 0.062575 0.000744
0.020305 0.058951 -0.000261
0.039875 0.049232 0.008789
0.039242 0.048451 -0.000261
0.053445 0.032107 -0.000261
0.062189 0.012083 0.000744
0.044894 -0.017720 0.150427
0.047416 -0.008625 0.150427
0.062569 -0.009915 0.000744
0.041669 -0.023344 0.150929
0.055403 -0.030717 0.008789
0.054524 -0.030230 -0.000261
0.012078 -0.062186 0.000744
0.038119 0.028785 0.150929
-0.053447 -0.032099 -0.000261
-0.047820 -0.041552 0.000744
-0.039244 -0.048443 -0.000261
-0.020635 -0.059893 0.000744
-0.009921 -0.062567 0.000744
-0.019829 -0.043452 0.150929
-0.042339 -0.022110 0.150929
-0.054526 0.030238 -0.000261
-0.041557 0.047822 0.000744
-0.022696 0.059152 0.000744
-0.032104 0.053450 -0.000261
-0.027771 0.039483 0.150427
-0.007099 0.047746 0.150427
-0.001098 0.063347 0.008789
0.009761 0.061582 -0.000261
0.054307 0.032625 0.000744
0.058207 0.022339 -0.000261
0.061576 -0.009758 -0.000261
-0.012081 0.062194 0.000744
-0.040897 0.047063 -0.000261
-0.022336 0.058213 -0.000261
-0.003246 0.047659 0.150929
0.061201 0.011892 -0.000261
-0.011889 0.061207 -0.000261
3 0 1 2
3 1 0 3
3 1 3 4
3 2 1 5
3 6 7 8
3 9 10 11
3 12 13 14
3 15 16 17
3 15 18 19
3 20 21 22
3 21 20 23
3 20 24 23
3 4 3 25
3 2 5 26
3 27 9 28
3 0 2 29
3 0 29 30
3 29 31 30
3 31 29 32
3 7 31 32
3 8 7 32
3 33 34 35
3 34 36 35
3 34 31 37
3 36 34 37
3 31 7 37
3 38 39 40
3 41 42 43
3 44 41 43
3 11 10 45
3 46 47 45
3 11 38 48
3 38 49 48
3 49 28 48
3 9 11 48
3 28 9 48
3 13 12 50
3 51 13 50
3 52 25 53
3 14 52 53
3 12 14 53
3 54 55 56
3 3 0 57
3 18 58 59
3 58 33 59
3 14 13 60
3 13 51 60
3 61 14 60
3 50 55 62
3 55 54 62
3 51 50 62
3 56 16 63
3 54 56 63
3 19 18 64
3 18 59 64
3 52 14 65
3 21 52 65
3 14 61 65
3 65 61 66
3 21 65 66
3 22 21 66
3 22 66 67
3 39 38 67
3 24 68 69
3 70 71 72
3 52 21 73
3 21 23 73
3 25 52 73
3 73 23 74
3 4 25 74
3 25 3 75
3 12 53 75
3 41 44 76
3 44 77 76
3 43 78 79
3 44 43 79
3 77 44 79
3 5 1 80
3 77 79 81
3 46 82 81
3 10 9 83
3 84 85 86
3 27 28 86
3 28 49 86
3 6 8 87
3 2 26 88
3 88 85 89
3 85 84 89
3 0 30 90
3 90 30 91
3 30 31 91
3 34 33 91
3 31 34 91
3 29 2 92
3 32 29 92
3 2 32 92
3 32 2 93
3 2 89 93
3 8 32 93
3 89 8 93
3 39 35 94
3 35 36 94
3 40 39 94
3 94 36 95
3 36 37 95
3 40 94 95
3 37 7 95
3 6 40 95
3 7 6 95
3 67 38 96
3 43 42 96
3 78 43 96
3 47 78 96
3 45 10 97
3 82 46 97
3 46 45 97
3 10 83 97
3 12 75 98
3 50 12 98
3 55 50 98
3 56 55 99
3 16 56 99
3 17 16 99
3 57 0 100
3 16 15 101
3 63 16 101
3 15 19 101
3 64 59 102
3 59 33 102
3 39 64 102
3 33 35 102
3 35 39 102
3 61 60 103
3 66 61 103
3 67 66 103
3 39 67 103
3 20 22 104
3 24 20 104
3 68 24 104
3 22 67 104
3 105 68 104
3 23 24 106
3 24 69 106
3 69 68 107
3 68 105 107
3 107 71 108
3 71 70 108
3 67 96 109
3 104 67 109
3 105 104 109
3 70 72 110
3 73 74 111
3 25 73 111
3 74 25 111
3 25 75 112
3 53 25 112
3 75 53 112
3 113 41 114
3 1 113 114
3 41 76 114
3 114 76 115
3 76 77 115
3 80 1 115
3 77 80 115
3 78 47 116
3 79 78 116
3 47 46 116
3 81 79 116
3 46 81 116
3 80 77 117
3 77 81 117
3 81 82 117
3 5 80 117
3 82 5 117
3 5 82 118
3 26 5 118
3 83 9 119
3 9 27 119
3 120 84 121
3 49 38 121
3 84 86 121
3 86 49 121
3 85 88 122
3 86 85 122
3 27 86 122
3 40 6 123
3 6 87 123
3 87 120 123
3 120 121 123
3 121 38 123
3 38 40 123
3 87 8 124
3 120 87 124
3 8 89 124
3 89 84 124
3 84 120 124
3 2 88 125
3 89 2 125
3 88 89 125
3 0 90 126
3 58 0 126
3 90 91 126
3 33 58 126
3 91 33 126
3 96 38 127
3 47 96 127
3 45 47 127
3 11 45 127
3 38 11 127
3 75 3 128
3 98 75 128
3 3 98 128
3 98 3 129
3 55 98 129
3 3 99 129
3 99 55 129
3 3 57 130
3 99 3 130
3 17 99 130
3 57 17 130
3 17 57 131
3 57 100 131
3 15 17 131
3 18 15 131
3 131 100 132
3 18 131 132
3 100 0 132
3 0 58 132
3 58 18 132
3 54 63 133
3 63 101 133
3 101 19 133
3 19 64 133
3 64 39 133
3 39 103 133
3 103 60 134
3 60 51 134
3 51 62 134
3 62 54 134
3 54 133 134
3 133 103 134
3 23 106 135
3 74 23 135
3 106 69 135
3 69 4 135
3 4 74 135
3 69 107 136
3 107 108 136
3 108 70 137
3 70 110 137
3 108 137 138
3 1 4 138
3 107 105 139
3 105 109 139
3 71 107 139
3 109 72 139
3 72 71 139
3 110 72 140
3 110 140 141
3 140 42 141
3 113 110 141
3 42 41 141
3 41 113 141
3 1 114 142
3 114 115 142
3 115 1 142
3 82 97 143
3 118 82 143
3 97 83 143
3 83 118 143
3 118 83 144
3 26 118 144
3 88 26 145
3 26 27 145
3 122 88 145
3 27 122 145
3 137 110 146
3 110 113 146
3 113 1 146
3 69 136 147
3 4 69 147
3 136 108 147
3 108 138 147
3 138 4 147
3 138 137 148
3 137 146 148
3 1 138 148
3 109 96 149
3 72 109 149
3 140 72 149
3 42 140 149
3 96 42 149
3 144 83 150
3 83 119 150
3 119 27 150
3 26 144 150
3 27 26 150
3 148 146 151
3 146 1 151
3 1 148 151
