ply
format ascii 1.0
element vertex 200
property float x
property float y
property float z
element face 396
property list uchar int vertex_indices
end_header
-0.038948 -0.002008 -0.006500
-0.038948 -0.002008 -0.030500
-0.037957 -0.008958 -0.006500
-0.035736 -0.015618 -0.030500
-0.035736 -0.015618 -0.006500
-0.038677 0.005007 -0.006500
-0.037153 0.011860 -0.006500
-0.037153 0.011860 -0.030500
-0.032357 -0.021772 -0.030500
-0.032357 -0.021772 -0.006500
-0.007840 -0.054000 -0.018000
-0.027930 -0.027220 -0.006500
0.038948 -0.002008 -0.006500
0.038948 -0.002008 -0.030500
0.038677 0.005007 -0.030500
-0.038449 -0.001982 -0.031000
-0.037471 -0.008843 -0.031000
-0.018297 0.002730 -0.033000
-0.018381 -0.002098 -0.033000
-0.017211 -0.006784 -0.033000
0.011932 -0.042257 -0.031000
0.014481 -0.011513 -0.033000
0.027572 -0.026871 -0.031000
0.027930 -0.027220 -0.030500
-0.010383 -0.043014 -0.031000
-0.003000 -0.054000 -0.025243
-0.011932 -0.042257 -0.031000
-0.012243 -0.042649 -0.030500
0.012244 -0.042649 -0.030500
0.005544 -0.054000 -0.023544
0.007243 -0.054000 -0.021000
-0.003000 -0.054000 -0.010757
0.007243 -0.054000 -0.015000
0.005544 -0.054000 -0.012456
0.003000 -0.054000 -0.010757
0.027930 -0.027220 -0.006500
0.000000 -0.054000 -0.010160
0.010439 -0.043000 -0.006000
-0.018861 -0.023969 0.000000
-0.002879 -0.030364 0.000000
0.008630 -0.029254 0.000000
0.014019 -0.027087 0.000000
-0.038449 -0.001982 -0.006000
-0.036677 0.011708 -0.006000
-0.038677 0.005007 -0.030500
-0.025746 0.029294 -0.006500
-0.025746 0.029294 -0.030500
-0.030581 0.024204 -0.030500
-0.014481 0.011513 -0.033000
-0.002098 0.018381 -0.033000
-0.011916 -0.042270 -0.006000
-0.027572 -0.026871 -0.006000
-0.012225 -0.042663 -0.006500
-0.008583 -0.029267 0.000000
-0.027930 -0.027220 -0.030500
-0.005544 -0.054000 -0.023544
0.037957 -0.008958 -0.030500
0.035278 -0.015418 -0.031000
0.037471 -0.008843 -0.031000
0.032357 -0.021772 -0.030500
0.035736 -0.015618 -0.030500
-0.037957 -0.008958 -0.030500
-0.035278 -0.015418 -0.031000
0.031942 -0.021493 -0.031000
0.027572 -0.026871 -0.006000
0.032357 -0.021772 -0.006500
0.035736 -0.015618 -0.006500
-0.003490 -0.044112 -0.031000
-0.002730 -0.018297 -0.033000
0.000000 -0.054000 -0.025840
0.003490 -0.044112 -0.031000
0.010383 -0.043014 -0.031000
0.012225 -0.042663 -0.006500
-0.010439 -0.043000 -0.006000
0.002929 -0.030359 0.000000
0.035278 -0.015418 -0.006000
0.030119 0.004806 0.000000
0.026428 0.015226 0.000000
0.030119 -0.004806 0.000000
0.037957 -0.008958 -0.006500
0.037471 -0.008843 -0.006000
-0.006992 0.038368 -0.030500
-0.013757 0.036493 -0.030500
-0.006992 0.038368 -0.006500
0.028835 0.009940 0.000000
0.006992 0.038368 -0.030500
0.006992 0.038368 -0.006500
0.013757 0.036493 -0.030500
-0.031942 -0.021493 -0.006000
-0.035278 -0.015418 -0.006000
-0.037471 -0.008843 -0.006000
-0.038181 0.004943 -0.006000
-0.033983 0.018094 -0.006000
-0.038181 0.004943 -0.031000
-0.036677 0.011708 -0.031000
-0.033983 0.018094 -0.031000
0.011513 0.014481 -0.033000
0.007373 0.016967 -0.033000
0.019820 0.033007 -0.031000
-0.025416 0.028919 -0.031000
-0.019820 0.033007 -0.031000
-0.020077 0.033435 -0.030500
-0.013581 0.036025 -0.031000
-0.011008 0.014869 -0.033000
-0.007243 -0.054000 -0.015000
-0.013975 -0.027110 0.000000
-0.007243 -0.054000 -0.021000
0.018381 0.002098 -0.033000
0.036677 0.011708 -0.031000
0.038181 0.004943 -0.031000
-0.031942 -0.021493 -0.031000
0.007840 -0.054000 -0.018000
0.031942 -0.021493 -0.006000
0.026452 -0.015183 0.000000
-0.011513 -0.014481 -0.033000
0.006784 -0.017211 -0.033000
0.003000 -0.054000 -0.025243
0.011916 -0.042270 -0.006000
0.003519 -0.030245 0.000000
0.028851 -0.009893 0.000000
0.038449 -0.001982 -0.006000
-0.023095 0.019922 0.000000
-0.018900 0.023939 0.000000
-0.025416 0.028919 -0.006000
-0.002929 0.030359 0.000000
-0.020077 0.033435 -0.006500
0.002879 0.030364 0.000000
-0.000000 0.038500 -0.006000
-0.000000 0.038500 -0.031000
0.006902 0.037876 -0.031000
0.013757 0.036493 -0.006500
0.020077 0.033435 -0.030500
0.018861 0.023969 0.000000
0.023062 0.019959 0.000000
0.025416 0.028919 -0.031000
0.033983 0.018094 -0.006000
0.036677 0.011708 -0.006000
0.037153 0.011860 -0.006500
0.034425 0.018329 -0.030500
0.037153 0.011860 -0.030500
0.038677 0.005007 -0.006500
-0.030119 -0.004806 0.000000
-0.030581 0.024204 -0.006500
-0.034425 0.018329 -0.030500
-0.016967 0.007373 -0.033000
-0.030189 0.023893 -0.031000
-0.006902 0.037876 -0.031000
-0.006784 0.017211 -0.033000
-0.005544 -0.054000 -0.012456
0.017211 0.006784 -0.033000
0.016967 -0.007373 -0.033000
0.038449 -0.001982 -0.031000
-0.027572 -0.026871 -0.031000
-0.014869 -0.011008 -0.033000
-0.007373 -0.016967 -0.033000
0.002098 -0.018381 -0.033000
0.011008 -0.014869 -0.033000
0.020457 -0.022447 0.000000
-0.008630 0.029254 0.000000
-0.019820 0.033007 -0.006000
-0.014019 0.027087 0.000000
-0.013757 0.036493 -0.006500
-0.000000 0.039000 -0.006500
0.002730 0.018297 -0.033000
0.013581 0.036025 -0.031000
0.013975 0.027110 0.000000
0.019820 0.033007 -0.006000
0.025416 0.028919 -0.006000
0.025746 0.029294 -0.006500
0.025746 0.029294 -0.030500
0.030581 0.024204 -0.030500
0.030189 0.023893 -0.031000
0.030581 0.024204 -0.006500
0.034425 0.018329 -0.006500
0.038181 0.004943 -0.006000
-0.026428 -0.015226 0.000000
-0.030119 0.004806 0.000000
-0.026452 0.015183 0.000000
-0.030189 0.023893 -0.006000
-0.034425 0.018329 -0.006500
0.018297 -0.002730 -0.033000
0.018900 -0.023939 0.000000
0.023095 -0.019922 0.000000
-0.006902 0.037876 -0.006000
-0.013581 0.036025 -0.006000
-0.000000 0.039000 -0.030500
0.006902 0.037876 -0.006000
0.008583 0.029267 0.000000
0.013581 0.036025 -0.006000
0.013310 0.027376 0.000000
0.020077 0.033435 -0.006500
0.014869 0.011008 -0.033000
0.033983 0.018094 -0.031000
0.030189 0.023893 -0.006000
-0.028835 -0.009940 0.000000
-0.023062 -0.019959 0.000000
-0.028851 0.009893 0.000000
0.023205 -0.019766 0.000000
-0.024982 -0.017259 0.000000
-0.026600 0.014858 0.000000
3 0 1 2
3 3 4 2
3 1 0 5
3 5 6 7
3 3 8 9
3 4 3 9
3 9 8 10
3 11 9 10
3 12 13 14
3 1 15 16
3 15 17 18
3 16 15 18
3 17 19 18
3 19 16 18
3 20 21 22
3 23 20 22
3 24 25 26
3 25 27 26
3 20 23 28
3 23 29 28
3 29 23 30
3 31 32 33
3 34 31 33
3 32 35 33
3 31 34 36
3 34 37 36
3 38 39 40
3 37 41 40
3 0 2 42
3 5 0 42
3 6 5 43
3 1 5 44
3 5 7 44
3 15 1 44
3 45 46 47
3 17 48 49
3 11 50 51
3 50 11 52
3 31 50 52
3 39 38 53
3 26 27 54
3 10 8 54
3 54 27 55
3 27 25 55
3 56 57 58
3 13 56 58
3 59 57 60
3 57 56 60
3 1 16 61
3 2 1 61
3 16 3 61
3 3 2 61
3 16 19 62
3 3 16 62
3 22 21 63
3 23 22 63
3 59 23 63
3 57 59 63
3 64 35 65
3 59 60 65
3 60 66 65
3 67 24 68
3 24 67 69
3 67 70 69
3 25 24 69
3 70 71 69
3 29 30 69
3 34 33 72
3 33 35 72
3 50 31 73
3 31 36 73
3 39 53 73
3 36 39 73
3 39 36 74
3 36 37 74
3 65 66 75
3 76 77 78
3 75 66 79
3 66 60 79
3 60 56 79
3 80 75 79
3 56 13 79
3 13 12 79
3 81 82 83
3 77 76 84
3 85 86 87
3 4 9 88
3 89 4 88
3 9 11 88
3 11 51 88
3 42 2 90
3 2 4 90
3 4 89 90
3 5 42 91
3 43 5 91
3 6 43 92
3 44 7 93
3 15 44 93
3 7 94 93
3 94 17 93
3 17 15 93
3 94 7 95
3 96 49 97
3 98 96 97
3 47 46 99
3 46 100 99
3 46 45 101
3 100 46 101
3 101 82 102
3 100 101 102
3 82 81 102
3 99 100 103
3 48 99 103
3 49 48 103
3 11 10 104
3 55 25 104
3 25 69 104
3 69 30 104
3 32 31 104
3 30 32 104
3 38 50 105
3 50 73 105
3 73 53 105
3 53 38 105
3 54 55 106
3 10 54 106
3 104 10 106
3 55 104 106
3 107 108 109
3 14 13 109
3 3 62 110
3 62 19 110
3 8 3 110
3 54 8 110
3 32 30 111
3 30 23 111
3 35 32 111
3 23 59 111
3 65 35 111
3 59 65 111
3 64 65 112
3 65 75 112
3 75 113 112
3 17 68 114
3 20 71 115
3 69 71 116
3 29 69 116
3 71 20 116
3 20 28 116
3 28 29 116
3 34 72 117
3 37 34 117
3 72 35 117
3 41 37 117
3 35 64 117
3 39 74 118
3 74 37 118
3 40 39 118
3 37 40 118
3 38 40 119
3 113 75 119
3 78 77 119
3 75 80 119
3 80 78 119
3 76 78 120
3 78 80 120
3 80 79 120
3 79 12 120
3 121 122 123
3 38 119 124
3 101 45 125
3 82 101 125
3 124 126 127
3 128 85 129
3 87 86 130
3 131 87 130
3 124 119 132
3 77 133 132
3 119 77 132
3 96 98 134
3 98 131 134
3 77 84 135
3 84 76 136
3 135 84 136
3 137 135 136
3 138 137 139
3 137 14 139
3 109 108 139
3 14 109 139
3 14 137 140
3 12 14 140
3 42 90 141
3 45 47 142
3 123 45 142
3 95 7 143
3 47 95 143
3 94 95 144
3 95 48 144
3 17 94 144
3 48 17 144
3 95 47 145
3 47 99 145
3 99 48 145
3 48 95 145
3 102 81 146
3 81 128 146
3 128 49 146
3 100 102 147
3 102 146 147
3 103 100 147
3 146 49 147
3 49 103 147
3 11 104 148
3 52 11 148
3 104 31 148
3 31 52 148
3 17 49 149
3 68 17 149
3 49 96 149
3 115 68 149
3 21 115 149
3 108 107 149
3 21 149 150
3 63 21 150
3 57 63 150
3 58 57 150
3 107 109 151
3 109 13 151
3 13 58 151
3 54 110 152
3 26 54 152
3 114 26 152
3 110 19 153
3 152 110 153
3 17 114 153
3 19 17 153
3 114 152 153
3 26 114 154
3 114 68 154
3 24 26 154
3 68 24 154
3 67 68 155
3 68 115 155
3 70 67 155
3 115 71 155
3 71 70 155
3 115 21 156
3 20 115 156
3 21 20 156
3 40 41 157
3 119 40 157
3 38 124 158
3 45 123 159
3 123 122 159
3 125 45 159
3 122 160 159
3 125 159 161
3 82 125 161
3 83 82 161
3 83 127 162
3 127 86 162
3 86 85 162
3 49 128 163
3 128 129 163
3 97 49 163
3 163 129 164
3 129 85 164
3 85 87 164
3 97 163 164
3 87 131 164
3 98 97 164
3 131 98 164
3 165 132 166
3 132 133 167
3 166 132 167
3 168 166 167
3 131 168 169
3 134 131 169
3 168 170 169
3 134 169 171
3 169 170 171
3 170 138 171
3 168 167 172
3 170 168 172
3 138 170 172
3 172 135 173
3 135 137 173
3 138 172 173
3 137 138 173
3 76 120 174
3 136 76 174
3 137 136 174
3 120 12 174
3 140 137 174
3 12 140 174
3 89 88 175
3 42 141 176
3 91 42 176
3 43 91 176
3 92 177 178
3 142 92 178
3 177 121 178
3 123 142 178
3 121 123 178
3 6 92 179
3 7 6 179
3 143 7 179
3 92 142 179
3 142 47 179
3 47 143 179
3 150 149 180
3 149 107 180
3 107 151 180
3 58 150 180
3 151 58 180
3 117 157 181
3 41 117 181
3 157 41 181
3 117 64 182
3 157 117 182
3 64 112 182
3 158 124 183
3 83 161 183
3 124 127 183
3 127 83 183
3 159 160 184
3 160 158 184
3 161 159 184
3 158 183 184
3 183 161 184
3 83 162 185
3 81 83 185
3 128 81 185
3 162 85 185
3 85 128 185
3 127 126 186
3 126 187 186
3 86 127 186
3 186 187 188
3 86 186 188
3 130 86 188
3 165 166 188
3 124 132 189
3 126 124 189
3 187 126 189
3 188 187 189
3 165 188 189
3 132 165 189
3 188 166 190
3 130 188 190
3 166 168 190
3 131 130 190
3 168 131 190
3 96 134 191
3 149 96 191
3 134 171 191
3 191 171 192
3 149 191 192
3 171 138 192
3 138 139 192
3 108 149 192
3 139 108 192
3 133 77 193
3 167 133 193
3 77 135 193
3 172 167 193
3 135 172 193
3 90 89 194
3 89 175 194
3 141 90 194
3 88 51 195
3 51 50 195
3 50 38 195
3 43 176 196
3 92 43 196
3 176 141 196
3 157 182 197
3 182 112 197
3 113 119 197
3 119 157 197
3 112 113 197
3 88 195 198
3 141 194 198
3 196 141 198
3 194 175 198
3 175 88 198
3 195 38 198
3 92 196 199
3 196 198 199
3 177 92 199
3 198 38 199
3 121 177 199
3 122 121 199
3 38 158 199
3 160 122 199
3 158 160 199
