ply
format ascii 1.0
element vertex 245
property float x
property float y
property float z
element face 486
property list uchar int vertex_indices
end_header
-0.024548 0.001293 -0.183094
0.015806 0.018444 -0.183094
-0.015809 -0.019269 -0.183094
-0.042886 -0.015571 -0.181073
-0.045486 -0.000286 -0.181073
-0.044640 -0.007304 -0.148555
-0.045172 0.001593 -0.146494
-0.032870 -0.032138 -0.156954
-0.032142 -0.032598 -0.181073
-0.025672 -0.038271 -0.162149
-0.003136 -0.044852 -0.147954
-0.011720 -0.043360 -0.147778
-0.009230 -0.044676 -0.154896
-0.000002 -0.045797 -0.161293
0.010548 0.013230 0.037889
0.012540 0.044982 0.037443
0.006453 0.057554 0.038622
-0.038121 0.062862 -0.091424
-0.035858 0.071471 -0.078404
-0.036848 0.065435 -0.091225
-0.005965 0.023460 -0.183094
0.023871 0.005551 -0.183094
-0.044377 -0.010399 -0.181073
-0.009505 -0.042556 -0.141794
0.003221 -0.044845 -0.147953
-0.000002 -0.043539 -0.141306
0.004761 -0.043393 -0.141740
0.025669 -0.038271 -0.162149
0.032139 -0.032598 -0.181073
0.032867 -0.032138 -0.156954
0.038576 0.014686 0.005677
0.042306 -0.017284 -0.154586
0.044637 -0.007304 -0.148555
0.038909 0.014686 0.001164
0.022456 0.011818 0.031723
0.014143 -0.041142 -0.141804
0.031759 0.011818 0.022163
0.014665 0.011818 0.036062
-0.042309 -0.017284 -0.154586
-0.038571 -0.024522 -0.181073
-0.013632 0.023846 0.037013
-0.012656 0.056582 0.037184
-0.018470 0.055292 0.034797
-0.032375 0.072755 -0.084639
-0.032141 0.031774 -0.181073
-0.038273 0.065830 0.004065
-0.037468 0.053913 0.011406
-0.037254 0.061461 0.010887
-0.035457 0.055719 0.016796
-0.033520 0.068368 0.016857
-0.023822 0.059029 0.031128
-0.022470 0.067617 0.030303
-0.029177 0.061407 0.025713
-0.028950 0.069621 0.023181
0.018855 -0.016220 -0.183094
-0.024020 -0.039039 -0.181073
-0.015059 -0.043333 -0.181073
-0.009879 -0.044812 -0.181073
-0.000002 -0.045897 -0.181073
-0.026267 -0.037397 -0.153794
-0.027276 -0.035233 -0.146776
-0.022348 -0.039869 -0.154151
-0.017726 -0.042444 -0.162728
0.024017 -0.039039 -0.181073
0.032373 0.072754 -0.084639
0.036846 0.065434 -0.091225
0.032138 0.031774 -0.181073
0.038067 -0.025861 -0.160498
0.027198 -0.035295 -0.146784
0.037231 0.011818 0.009997
0.034052 0.011818 0.018330
0.036356 0.014686 0.014436
0.044374 -0.010399 -0.181073
0.045483 -0.000286 -0.181073
0.042883 -0.015571 -0.181073
0.045169 0.001593 -0.146494
0.029323 0.013230 0.025951
0.022677 0.013230 0.032030
-0.002827 0.011818 0.038869
0.006083 0.011818 0.038488
0.018933 0.014686 0.034561
-0.006366 0.045424 0.038965
-0.038070 -0.025861 -0.160498
-0.038597 -0.024043 -0.151662
-0.037508 0.011818 0.008843
-0.018543 0.062950 0.034001
-0.031471 0.077191 -0.071632
-0.026141 0.081846 -0.058173
-0.021527 0.081611 -0.071512
-0.040981 0.019325 -0.181073
-0.022382 0.077776 -0.084217
-0.011345 0.080246 -0.084049
-0.000002 0.080507 -0.085774
-0.000002 0.045072 -0.181073
-0.032183 0.060726 0.021931
-0.025819 0.071637 0.025426
-0.018831 0.073093 0.030245
-0.022254 0.076377 0.024504
-0.000002 0.049884 0.039425
-0.000002 0.063809 0.038474
0.003714 0.069485 0.037065
-0.007498 0.069290 0.036560
-0.000002 0.086333 0.004608
-0.007543 0.084939 0.014017
-0.000002 0.084213 0.021010
0.012749 0.062407 0.036611
0.028441 0.052825 0.027352
0.023819 0.059029 0.031128
0.026677 0.061870 0.028240
0.037465 0.053914 0.011406
0.005962 -0.024285 -0.183094
0.009876 -0.044812 -0.181073
0.015056 -0.043333 -0.181073
0.024821 0.080903 0.007584
0.022054 0.079115 0.019905
0.028230 0.077494 0.014253
0.022379 0.077776 -0.084217
0.011062 0.082200 -0.077878
0.021899 0.079940 -0.077964
0.031469 0.077191 -0.071632
0.026663 0.079779 -0.071557
0.030948 0.079477 -0.058160
0.027073 0.077993 -0.078069
0.035856 0.071470 -0.078404
0.036541 0.073860 -0.058130
0.038118 0.062861 -0.091425
0.019671 0.040598 -0.181073
0.040978 0.019325 -0.181073
0.038568 -0.024522 -0.181073
0.038594 -0.024043 -0.151662
0.009020 -0.044992 -0.163190
0.011685 -0.043369 -0.147779
0.013769 -0.043529 -0.154694
0.017723 -0.042444 -0.162728
0.022345 -0.039869 -0.154151
0.001661 0.014686 0.039443
0.018466 0.055292 0.034797
0.018547 0.060748 0.034324
-0.038718 0.014686 0.004483
-0.019850 -0.040147 -0.147409
-0.023411 0.011818 0.031014
-0.015758 0.011818 0.035592
-0.011699 0.013230 0.037545
-0.007350 0.014686 0.038778
-0.032414 0.011818 0.021171
-0.028444 0.052825 0.027353
-0.023642 0.013230 0.031314
-0.035269 0.075079 -0.064953
-0.034984 0.076671 -0.051339
-0.030950 0.079477 -0.058160
-0.027075 0.077993 -0.078069
-0.019674 0.040598 -0.181073
-0.044377 0.009573 -0.181073
-0.038569 0.023700 -0.181073
-0.028417 0.035104 -0.181073
-0.009879 0.043987 -0.181073
-0.020958 0.083874 -0.051401
-0.015860 0.084727 -0.058217
-0.007223 0.086297 -0.044556
-0.000002 0.086120 -0.059299
-0.000002 0.086692 -0.012804
0.010595 0.085531 -0.058249
0.005431 0.084257 -0.071515
-0.015108 0.068636 0.034331
-0.005105 0.063750 0.038166
-0.011367 0.078493 0.029568
-0.015036 0.080750 0.023460
-0.007568 0.082031 0.025373
-0.000002 0.074310 0.035265
-0.007566 0.076953 0.032514
-0.000002 0.078891 0.031701
-0.007555 0.083858 0.019786
0.011332 0.081448 0.024615
0.011364 0.078493 0.029568
0.022251 0.076377 0.024504
0.015137 0.073684 0.032014
0.022398 0.072412 0.028048
0.022467 0.067617 0.030303
0.028947 0.069621 0.023181
0.032177 0.014686 0.022447
0.038270 0.065830 0.004065
0.033729 0.076439 0.002684
0.021248 0.082801 -0.064906
0.017371 0.084808 -0.044556
0.036761 0.074830 -0.012607
0.033778 0.077953 -0.044556
0.035267 0.075078 -0.064953
0.009876 0.043987 -0.181073
0.028414 0.035104 -0.181073
0.038566 0.023700 -0.181073
0.044374 0.009573 -0.181073
0.026264 -0.037397 -0.153794
0.019790 -0.040177 -0.147412
-0.000002 0.023846 0.039478
-0.019977 0.014686 0.033960
-0.036771 0.014686 0.013306
-0.032841 0.014686 0.021443
-0.036764 0.074830 -0.012607
-0.036543 0.073860 -0.058130
-0.030083 0.080416 -0.044556
-0.038497 0.068925 -0.006250
-0.037627 0.071520 -0.000860
-0.035939 0.069887 0.009802
-0.022057 0.079115 0.019905
-0.021852 0.080827 0.014810
-0.014735 0.084719 0.001167
0.014659 0.085301 -0.021696
0.014732 0.084719 0.001167
0.021064 0.083802 -0.022832
-0.005434 0.084257 -0.071515
-0.011363 0.074185 0.033337
-0.000002 0.081953 0.027213
0.007540 0.084939 0.014017
0.011307 0.069008 0.035659
0.007548 0.074588 0.034233
0.028735 0.073199 0.020703
0.032179 0.060727 0.021932
0.035936 0.069887 0.009802
0.037624 0.071520 -0.000860
0.033215 0.073735 0.011878
0.026003 0.082215 -0.051381
0.034653 0.076914 -0.006474
-0.034588 0.011818 0.017269
-0.030096 0.013230 0.025033
-0.028738 0.073199 0.020703
-0.035538 0.073763 0.004697
-0.034656 0.076914 -0.006474
-0.033732 0.076439 0.002684
-0.014866 0.083615 0.012506
-0.021067 0.083802 -0.022832
0.007552 0.083858 0.019786
0.018840 0.068173 0.032547
0.033517 0.068368 0.016857
0.035454 0.055719 0.016795
0.038674 0.067296 -0.004010
0.035535 0.073763 0.004697
0.024426 0.082067 -0.002758
-0.028233 0.077495 0.014252
-0.033484 0.073577 0.011490
-0.024429 0.082067 -0.002758
0.014946 0.082528 0.018081
0.037251 0.061460 0.010887
0.030659 0.079847 -0.014877
-0.024824 0.080903 0.007584
-0.030662 0.079847 -0.014877
3 0 1 2
3 0 2 3
3 4 5 6
3 7 8 9
3 10 11 12
3 13 10 12
3 14 15 16
3 17 18 19
3 1 0 20
3 2 1 21
3 4 0 22
3 5 4 22
3 0 3 22
3 11 10 23
3 10 13 24
3 23 10 25
3 10 24 25
3 24 26 25
3 27 28 29
3 30 31 32
3 33 30 32
3 34 26 35
3 34 35 36
3 26 34 37
3 5 22 38
3 22 3 38
3 3 2 39
3 38 3 39
3 2 8 39
3 40 41 42
3 19 18 43
3 19 43 44
3 20 0 44
3 45 46 47
3 46 48 47
3 48 49 47
3 50 51 52
3 52 51 53
3 2 21 54
3 8 2 55
3 9 8 55
3 2 56 55
3 56 2 57
3 13 12 57
3 58 13 57
3 7 9 59
3 60 7 59
3 9 61 59
3 9 55 62
3 55 56 62
3 61 9 62
3 56 57 62
3 11 61 62
3 57 12 62
3 12 11 62
3 54 28 63
3 28 27 63
3 64 65 66
3 29 28 67
3 68 29 69
3 70 68 69
3 71 70 69
3 30 71 69
3 31 30 69
3 54 21 72
3 21 73 72
3 31 74 72
3 74 54 72
3 32 31 72
3 73 32 72
3 33 32 75
3 32 73 75
3 34 36 76
3 77 34 76
3 78 25 79
3 25 26 79
3 26 37 79
3 37 14 79
3 14 37 80
3 15 14 80
3 37 34 80
3 34 77 80
3 41 40 81
3 38 39 82
3 83 38 82
3 39 8 82
3 7 83 82
3 8 7 82
3 38 83 84
3 83 7 84
3 7 60 84
3 50 42 85
3 51 50 85
3 42 41 85
3 43 18 86
3 87 88 86
3 17 19 89
3 90 88 91
3 92 93 91
3 49 48 94
3 52 53 94
3 53 49 94
3 53 51 95
3 95 51 96
3 97 95 96
3 98 16 99
3 100 101 99
3 16 100 99
3 102 103 104
3 100 16 105
3 16 15 105
3 77 76 106
3 107 77 106
3 108 107 106
3 71 30 109
3 2 54 110
3 57 2 110
3 58 57 110
3 111 58 110
3 112 111 110
3 54 63 110
3 63 112 110
3 113 114 115
3 116 117 118
3 119 120 121
3 118 120 122
3 116 118 122
3 120 119 122
3 119 64 122
3 64 119 123
3 124 125 123
3 65 64 123
3 125 65 123
3 116 122 126
3 122 64 126
3 65 125 127
3 54 74 128
3 28 54 128
3 67 28 128
3 31 67 128
3 74 31 128
3 29 67 129
3 69 29 129
3 67 31 129
3 31 69 129
3 13 58 130
3 58 111 130
3 24 13 130
3 111 112 130
3 24 130 131
3 26 24 131
3 130 132 131
3 35 26 131
3 130 112 133
3 132 130 133
3 112 63 133
3 63 27 133
3 132 133 134
3 133 27 134
3 78 79 135
3 79 14 135
3 16 98 135
3 14 16 135
3 15 80 136
3 105 15 136
3 137 105 136
3 80 77 136
3 77 107 136
3 107 137 136
3 6 5 138
3 5 38 138
3 38 84 138
3 45 6 138
3 46 45 138
3 60 59 139
3 59 61 139
3 61 11 139
3 11 23 139
3 140 23 141
3 23 25 141
3 78 142 141
3 25 78 141
3 40 142 143
3 142 78 143
3 81 40 143
3 78 135 143
3 139 23 144
3 23 140 144
3 52 94 145
3 50 52 145
3 146 50 145
3 86 18 147
3 147 148 149
3 86 147 149
3 87 86 149
3 43 86 150
3 86 88 150
3 90 151 150
3 88 90 150
3 151 43 150
3 89 0 152
3 17 89 152
3 0 4 152
3 89 19 153
3 19 44 153
3 44 0 153
3 0 89 153
3 43 151 154
3 44 43 154
3 151 20 154
3 20 44 154
3 90 91 155
3 151 90 155
3 91 93 155
3 20 151 155
3 93 20 155
3 87 156 157
3 88 87 157
3 156 158 157
3 158 159 157
3 159 158 160
3 161 159 160
3 159 161 162
3 117 92 162
3 51 85 163
3 96 51 163
3 85 41 163
3 41 101 163
3 41 81 164
3 101 41 164
3 81 98 164
3 99 101 164
3 98 99 164
3 97 96 165
3 166 97 165
3 167 166 165
3 101 100 168
3 165 169 170
3 167 165 170
3 169 168 170
3 166 167 171
3 167 104 171
3 104 103 171
3 172 173 174
3 173 175 174
3 175 176 174
3 114 172 174
3 115 114 174
3 137 107 177
3 107 108 177
3 108 178 177
3 178 176 177
3 106 76 179
3 76 36 179
3 36 70 179
3 70 71 179
3 109 30 180
3 30 33 180
3 113 115 181
3 162 161 182
3 161 183 182
3 117 162 182
3 118 117 182
3 120 118 182
3 121 120 182
3 184 124 185
3 121 185 186
3 119 121 186
3 185 124 186
3 123 119 186
3 124 123 186
3 20 93 187
3 92 117 187
3 93 92 187
3 117 116 187
3 1 20 187
3 126 1 187
3 116 126 187
3 1 126 188
3 126 64 188
3 66 1 188
3 64 66 188
3 1 66 189
3 21 1 189
3 66 65 189
3 65 127 189
3 127 21 189
3 21 127 190
3 127 125 190
3 73 21 190
3 134 27 191
3 27 29 191
3 29 68 191
3 131 132 192
3 132 134 192
3 35 131 192
3 134 191 192
3 191 68 192
3 68 70 192
3 36 35 192
3 70 36 192
3 143 135 193
3 81 143 193
3 98 81 193
3 135 98 193
3 50 146 194
3 146 140 194
3 140 141 194
3 42 50 194
3 141 142 194
3 40 42 194
3 142 40 194
3 138 84 195
3 46 138 195
3 48 46 195
3 48 195 196
3 94 48 196
3 145 94 196
3 197 148 198
3 18 17 198
3 147 18 198
3 148 147 198
3 149 148 199
3 87 149 199
3 156 87 199
3 4 6 200
3 6 45 200
3 152 4 200
3 45 201 200
3 17 152 200
3 201 197 200
3 197 198 200
3 198 17 200
3 45 47 202
3 201 45 202
3 47 49 202
3 97 166 203
3 166 204 203
3 103 102 205
3 160 158 205
3 102 160 205
3 160 102 206
3 102 207 206
3 161 160 206
3 207 208 206
3 183 161 206
3 208 183 206
3 88 157 209
3 157 159 209
3 91 88 209
3 159 162 209
3 92 91 209
3 162 92 209
3 96 163 210
3 163 101 210
3 165 96 210
3 169 165 210
3 101 168 210
3 168 169 210
3 167 170 211
3 104 167 211
3 170 173 211
3 173 172 211
3 102 104 212
3 207 102 212
3 100 105 213
3 170 168 214
3 168 100 214
3 100 213 214
3 213 175 214
3 173 170 214
3 175 173 214
3 174 176 215
3 176 178 215
3 115 174 215
3 108 106 216
3 106 179 216
3 178 108 216
3 217 180 218
3 115 215 219
3 181 115 219
3 183 208 220
3 182 183 220
3 121 182 220
3 113 181 221
3 184 185 221
3 84 60 222
3 195 84 222
3 196 195 222
3 144 196 222
3 60 139 222
3 139 144 222
3 196 144 223
3 144 140 223
3 145 196 223
3 146 145 223
3 140 146 223
3 49 53 224
3 53 95 224
3 95 97 224
3 201 202 225
3 197 201 225
3 197 225 226
3 225 227 226
3 148 197 226
3 199 148 226
3 204 166 228
3 166 171 228
3 171 103 228
3 103 205 228
3 156 199 229
3 205 158 229
3 158 156 229
3 104 211 230
3 211 172 230
3 212 104 230
3 213 105 231
3 105 137 231
3 175 213 231
3 137 177 231
3 176 175 231
3 177 176 231
3 215 178 232
3 178 216 232
3 219 215 232
3 217 219 232
3 179 71 233
3 216 179 233
3 232 216 233
3 71 109 233
3 124 184 234
3 184 218 234
3 218 180 234
3 125 124 234
3 180 33 234
3 33 75 234
3 190 125 234
3 75 73 234
3 73 190 234
3 219 217 235
3 181 219 235
3 221 181 235
3 217 218 235
3 184 221 235
3 218 184 235
3 207 113 236
3 208 207 236
3 224 97 237
3 97 203 237
3 203 204 237
3 202 49 238
3 225 202 238
3 227 225 238
3 49 224 238
3 224 237 238
3 237 227 238
3 228 205 239
3 205 229 239
3 212 230 240
3 230 172 240
3 172 114 240
3 207 212 240
3 114 113 240
3 113 207 240
3 232 233 241
3 233 109 241
3 217 232 241
3 109 180 241
3 180 217 241
3 208 236 242
3 236 113 242
3 113 221 242
3 220 208 242
3 121 220 242
3 185 121 242
3 221 185 242
3 226 227 243
3 227 237 243
3 237 204 243
3 204 228 243
3 228 239 243
3 226 243 244
3 199 226 244
3 243 239 244
3 239 229 244
3 229 199 244
