ply
format ascii 1.0
element vertex 293
property float x
property float y
property float z
element face 582
property list uchar int vertex_indices
end_header
0.045639 0.018515 0.096834
0.045759 0.015675 0.104255
0.048140 0.007972 0.099152
-0.049120 0.001460 0.064452
-0.043379 -0.097923 -0.007469
-0.046170 -0.104832 0.003259
-0.047941 -0.107920 0.030741
-0.031388 -0.265696 -0.017806
0.014455 -0.308257 0.045725
-0.037754 -0.245161 -0.003679
-0.025601 -0.122863 0.114974
-0.032797 -0.110676 0.115112
-0.033191 -0.118679 0.112712
-0.025865 -0.086000 -0.031738
-0.033215 -0.086096 -0.023760
-0.026233 -0.080209 -0.028884
-0.013820 -0.074244 -0.034066
-0.004756 -0.072418 -0.035640
-0.009190 -0.079301 -0.038166
0.083078 -0.284509 -0.058645
0.079058 -0.273211 -0.059195
0.088489 -0.276001 -0.048125
0.048347 0.008086 0.064452
-0.038289 -0.098284 -0.019907
-0.038817 -0.093232 -0.017542
-0.042226 -0.105912 -0.012552
-0.029496 -0.253935 -0.041053
-0.037499 -0.240389 -0.025048
-0.042409 -0.219811 -0.005427
-0.040885 -0.235082 -0.005206
-0.047197 -0.108025 0.098089
-0.036137 -0.257094 -0.019138
-0.032329 -0.098635 -0.028083
-0.013980 -0.287675 -0.055882
-0.003976 -0.300084 -0.058110
-0.009126 -0.298771 -0.051153
0.009133 -0.299442 -0.070231
0.022554 -0.302694 -0.074537
0.021585 -0.310374 -0.068794
-0.039793 -0.120636 0.106093
-0.033578 -0.126302 0.108917
0.044918 -0.025057 0.114625
0.098407 -0.285060 0.045725
0.045670 0.003445 0.111889
-0.048244 -0.094499 0.096705
-0.048941 0.000609 0.100614
-0.047204 -0.090845 0.105406
-0.048141 -0.027840 0.108430
-0.047525 0.000644 0.109431
-0.044248 -0.108415 0.106382
-0.016488 -0.108064 0.120380
-0.017898 -0.081858 -0.035718
-0.000105 -0.078435 -0.038980
0.004499 -0.072414 -0.035623
0.017679 -0.081850 -0.035641
0.025963 -0.080186 -0.028790
0.025634 -0.085987 -0.031628
0.059743 -0.273683 -0.074271
0.048875 -0.264512 -0.076669
0.087878 -0.285772 -0.052375
-0.005209 -0.279766 -0.066682
0.002340 -0.277288 -0.071671
0.006396 -0.284102 -0.073582
-0.001083 -0.286591 -0.068612
0.028744 -0.268379 -0.079737
0.039211 -0.267067 -0.079534
0.017849 -0.268280 -0.077398
0.026218 -0.281185 -0.080523
0.038201 -0.280370 -0.081185
0.031454 -0.287227 -0.080760
0.050070 -0.290515 -0.078811
0.063213 -0.298027 -0.072898
0.057180 -0.305559 -0.072808
0.057263 -0.314682 -0.067202
0.043315 -0.307988 -0.074311
0.055511 -0.282361 -0.077412
0.068114 -0.289475 -0.071378
0.071652 -0.280329 -0.068210
0.080314 -0.293988 -0.061690
0.040025 0.029431 0.064452
0.040994 0.027770 0.091701
0.046044 0.017661 0.064452
0.094157 -0.277340 -0.033870
0.063991 -0.308431 -0.068614
0.097635 -0.277681 0.014430
0.097807 -0.288831 -0.002694
-0.039184 -0.244697 -0.017566
-0.025521 -0.093527 -0.033582
-0.018689 -0.267191 -0.055082
-0.021693 -0.274367 -0.051110
-0.012133 -0.280955 -0.060642
-0.003188 -0.294235 -0.063940
0.030073 -0.298521 -0.078029
0.043643 -0.297720 -0.078498
-0.017690 -0.291253 -0.042299
-0.006509 -0.303079 -0.044383
-0.003578 -0.304202 -0.051532
0.007994 -0.310774 -0.057639
-0.000227 -0.308272 -0.044302
0.008585 -0.313622 -0.050391
0.021225 -0.319253 -0.054479
0.021437 -0.320927 -0.046548
0.008115 -0.306114 -0.064358
0.035884 -0.312333 -0.071182
0.035425 -0.318804 -0.064377
-0.017184 -0.126075 0.116662
-0.008501 -0.128192 0.117663
-0.008295 -0.119007 0.119926
0.045730 0.010306 0.109347
0.041160 0.023102 0.108496
-0.039514 -0.113771 0.109932
-0.044381 -0.114455 0.102575
-0.031600 -0.086299 0.118500
-0.000160 -0.105941 0.122165
0.010587 0.049227 0.064452
0.019928 0.046110 0.064452
0.018370 0.046285 0.102051
0.025793 0.042976 0.064452
0.017898 -0.075802 -0.032635
0.008978 -0.079296 -0.038127
0.085473 -0.295353 -0.055251
0.089473 -0.296243 -0.047789
0.091590 -0.286609 -0.045167
0.010154 -0.273428 -0.075329
0.011143 -0.290709 -0.074730
0.049961 -0.319242 -0.064550
0.049170 -0.324548 -0.056446
0.044081 -0.272660 -0.079829
0.055563 -0.329985 -0.033146
0.064966 -0.328707 -0.027583
0.058498 -0.330534 -0.016963
0.012503 -0.316585 -0.041985
0.086481 -0.314233 -0.022803
0.087302 -0.315560 0.013673
0.081549 -0.320698 -0.003472
0.084625 -0.318416 0.045725
0.032936 -0.086065 -0.023642
0.069799 -0.300760 -0.068592
0.096506 -0.278245 -0.018025
-0.035789 -0.254086 -0.028261
-0.031106 -0.267143 -0.035909
-0.026392 -0.273945 -0.043392
-0.026047 -0.279197 -0.032243
-0.011620 -0.265894 -0.061211
0.021194 -0.315839 -0.061972
0.035029 -0.323062 -0.056589
0.042718 -0.329536 -0.019622
0.033360 -0.326131 -0.039049
0.048136 -0.330103 -0.030066
0.047647 -0.327759 -0.047223
0.051821 -0.330939 0.000874
0.016513 -0.117108 0.118939
0.032477 -0.110676 0.115112
0.024446 -0.105656 0.118785
0.038025 -0.083906 0.115948
0.023612 -0.088344 0.120495
0.038615 -0.098951 0.113991
0.043373 -0.081275 0.112319
0.038254 -0.038011 0.119038
0.032142 -0.020000 0.121195
-0.045238 -0.025057 0.114625
-0.038574 -0.038011 0.119038
-0.040410 -0.006823 0.118054
-0.043774 0.006175 0.114135
-0.046049 0.010306 0.109347
-0.043975 -0.095000 0.110406
0.007388 -0.091065 0.122904
-0.027401 0.035563 0.114389
-0.018615 0.039743 0.116440
-0.018712 0.043511 0.112216
-0.009395 0.045982 0.113825
-0.000160 0.045915 0.115526
-0.000160 0.049020 0.109193
0.009068 0.048123 0.108874
-0.000160 0.050223 0.100905
-0.008794 0.023031 0.123362
-0.000160 0.032228 0.122416
-0.009190 0.037550 0.120264
-0.048403 0.009845 0.092753
-0.041677 0.027412 0.064452
-0.046079 0.015675 0.104255
-0.041480 0.023102 0.108496
-0.045802 0.019300 0.089208
-0.041434 0.026881 0.100163
-0.034956 0.026140 0.114619
-0.035211 0.032913 0.107600
-0.035172 0.034504 0.102772
-0.027472 0.040868 0.105036
-0.027454 0.041842 0.095523
-0.018695 0.045510 0.107064
-0.018716 0.046582 0.097251
-0.009422 0.049397 0.098949
-0.000160 0.050465 0.086725
0.009102 0.049397 0.098949
0.018392 0.043511 0.112216
0.034028 0.013711 0.118821
0.017457 0.020994 0.122425
0.033155 -0.003191 0.120580
0.027134 0.041842 0.095523
0.027082 0.035563 0.114389
0.034636 0.026140 0.114619
0.034891 0.032913 0.107600
0.034852 0.034504 0.102772
0.041114 0.026881 0.100163
0.083536 -0.313725 -0.040891
0.080544 -0.313154 -0.049328
0.085708 -0.305229 -0.049163
0.095718 -0.287621 -0.028987
0.094965 -0.297568 -0.022015
-0.017652 -0.089718 -0.037675
0.018774 -0.286671 -0.078392
0.056674 -0.321660 -0.059743
0.063886 -0.316985 -0.062132
0.073438 -0.325533 -0.020786
0.070433 -0.325167 -0.038302
0.029740 -0.324158 0.045725
0.070452 -0.310622 -0.063362
0.069726 -0.318626 -0.055852
0.093455 -0.306553 0.014430
0.096288 -0.299695 0.014430
0.097954 -0.292465 0.014430
0.096288 -0.299695 0.045725
-0.033841 -0.262927 -0.029137
-0.018809 -0.286796 -0.048474
0.041683 -0.325723 -0.052502
-0.000160 -0.134614 0.115892
-0.000160 -0.123784 0.119384
0.008181 -0.128192 0.117663
-0.041260 0.016490 0.113565
-0.038935 -0.098951 0.113991
0.015860 -0.016443 0.123851
-0.009388 0.048123 0.108874
-0.024539 -0.017977 0.122750
-0.034348 0.013711 0.118821
-0.009330 0.042176 0.117790
-0.000160 0.040573 0.119680
0.008725 0.032741 0.121767
0.018085 0.035178 0.119075
-0.047099 0.015389 0.064452
-0.035643 0.035196 0.064452
-0.030747 0.039690 0.064452
-0.027499 0.039052 0.110122
-0.006795 0.049969 0.064452
0.009010 0.042176 0.117790
0.027152 0.040868 0.105036
0.040090 -0.006823 0.118054
0.026617 0.026893 0.118932
0.040695 0.008812 0.116052
0.033584 0.036935 0.064452
0.090369 -0.306171 -0.031922
0.092200 -0.296817 -0.039584
0.059886 -0.327688 -0.043825
0.079239 -0.320537 -0.031178
0.023788 -0.319729 0.045725
0.043408 -0.329805 0.045725
0.050751 -0.330868 0.045725
0.072423 -0.326770 0.045725
0.065459 -0.329329 0.045725
0.074611 -0.325479 -0.002681
0.076026 -0.302833 -0.063249
0.089532 -0.312850 0.045725
0.097954 -0.292465 0.045725
-0.031933 -0.268058 -0.026170
-0.026784 -0.277874 -0.037246
0.034452 -0.325384 -0.048112
-0.038345 -0.083906 0.115948
-0.000160 0.017527 0.124179
-0.007708 -0.091065 0.122904
-0.033930 0.005240 0.119937
-0.026937 0.026893 0.118932
-0.022478 0.045038 0.064452
-0.000160 0.050421 0.064452
0.009075 0.045982 0.113825
0.018295 0.039743 0.116440
0.027179 0.039052 0.110122
0.040940 0.016490 0.113565
0.055160 -0.326433 -0.050762
0.074289 -0.319673 -0.048376
0.067287 -0.324546 -0.046468
0.077369 -0.320254 -0.040018
0.036533 -0.327081 0.046230
0.058168 -0.330708 0.045725
0.065459 -0.329329 0.014430
0.078870 -0.323098 0.045725
0.076125 -0.312168 -0.056921
0.081474 -0.304291 -0.056753
0.093455 -0.306553 0.045725
-0.008339 0.003729 0.124395
-0.017777 0.020994 0.122425
-0.016368 0.047660 0.064452
0.062621 -0.323412 -0.053719
-0.000160 -0.011055 0.124749
-0.018180 0.030476 0.120692
3 0 1 2
3 3 4 5
3 6 3 5
3 7 8 9
3 10 11 12
3 13 14 15
3 16 17 18
3 19 20 21
3 0 2 22
3 14 23 24
3 5 4 25
3 4 24 25
3 24 23 25
3 23 26 25
3 27 5 25
3 26 27 25
3 6 5 28
3 5 27 28
3 29 30 28
3 9 29 31
3 7 9 31
3 23 14 32
3 14 13 32
3 26 23 32
3 33 34 35
3 36 37 38
3 39 8 40
3 10 12 40
3 41 42 43
3 3 6 44
3 45 3 44
3 6 28 44
3 30 46 44
3 28 30 44
3 45 44 47
3 44 46 47
3 48 45 47
3 46 30 49
3 11 10 50
3 15 16 51
3 13 15 51
3 16 18 51
3 18 17 52
3 17 53 52
3 54 55 56
3 55 20 56
3 57 54 56
3 54 57 58
3 19 21 59
3 60 61 62
3 63 60 62
3 18 52 64
3 52 65 64
3 66 18 64
3 67 66 64
3 67 64 68
3 64 65 68
3 69 67 68
3 70 71 72
3 73 74 72
3 58 57 75
3 57 76 75
3 71 70 75
3 76 71 75
3 56 20 77
3 57 56 77
3 76 57 77
3 20 19 77
3 78 76 77
3 19 78 77
3 79 80 81
3 80 0 81
3 0 22 81
3 22 82 81
3 82 21 81
3 72 71 83
3 73 72 83
3 2 42 84
3 22 2 84
3 42 85 84
3 28 27 86
3 29 28 86
3 31 29 86
3 32 13 87
3 26 32 88
3 89 26 88
3 89 88 90
3 88 60 90
3 33 89 90
3 60 63 90
3 33 90 91
3 90 63 91
3 34 33 91
3 63 36 91
3 92 69 93
3 69 68 93
3 68 70 93
3 74 92 93
3 70 72 93
3 72 74 93
3 94 35 95
3 35 34 96
3 95 35 96
3 34 97 96
3 98 95 96
3 96 97 99
3 98 96 99
3 99 97 100
3 101 99 100
3 34 91 102
3 91 36 102
3 97 34 102
3 36 38 102
3 38 37 103
3 37 92 103
3 92 74 103
3 104 38 103
3 50 10 105
3 106 107 105
3 107 50 105
3 43 42 108
3 1 109 108
3 2 1 108
3 42 2 108
3 49 39 110
3 39 40 110
3 40 12 110
3 12 11 110
3 30 29 111
3 49 30 111
3 29 9 111
3 39 49 111
3 9 8 111
3 8 39 111
3 11 50 112
3 50 107 113
3 53 114 115
3 114 116 115
3 117 53 115
3 53 117 118
3 55 54 118
3 79 55 118
3 52 53 119
3 53 118 119
3 54 58 119
3 118 54 119
3 65 52 119
3 58 65 119
3 78 19 120
3 19 59 120
3 59 121 120
3 59 21 122
3 21 82 122
3 121 59 122
3 62 61 123
3 66 67 123
3 63 62 124
3 36 63 124
3 37 36 124
3 104 103 125
3 103 74 125
3 74 73 125
3 126 104 125
3 68 65 127
3 65 58 127
3 58 75 127
3 70 68 127
3 75 70 127
3 128 129 130
3 98 99 131
3 99 101 131
3 132 133 134
3 133 135 134
3 55 79 136
3 79 81 136
3 81 21 136
3 20 55 136
3 21 20 136
3 71 76 137
3 83 71 137
3 76 78 137
3 22 84 138
3 82 22 138
3 84 85 138
3 86 27 139
3 27 26 139
3 26 140 139
3 140 26 141
3 26 89 141
3 8 7 142
3 32 87 143
3 87 61 143
3 88 32 143
3 60 88 143
3 61 60 143
3 97 102 144
3 102 38 144
3 100 97 144
3 38 104 144
3 144 104 145
3 100 144 145
3 104 126 145
3 146 147 148
3 149 128 148
3 150 146 148
3 128 130 148
3 130 150 148
3 151 152 153
3 152 154 153
3 154 155 153
3 154 152 156
3 157 154 156
3 155 154 158
3 159 155 158
3 154 157 158
3 157 41 158
3 47 46 160
3 48 47 160
3 161 162 160
3 48 160 163
3 164 48 163
3 160 162 163
3 46 49 165
3 160 46 165
3 49 110 165
3 113 151 166
3 151 153 166
3 153 155 166
3 167 168 169
3 168 170 169
3 170 171 172
3 173 174 172
3 175 176 177
3 3 45 178
3 15 14 179
3 45 48 180
3 178 45 180
3 48 164 180
3 164 181 180
3 182 178 180
3 180 181 183
3 182 180 183
3 179 182 183
3 181 184 185
3 183 181 185
3 186 183 185
3 184 167 185
3 186 185 187
3 188 186 187
3 187 189 190
3 188 187 190
3 189 191 190
3 191 174 192
3 192 174 193
3 174 173 193
3 173 116 193
3 114 192 193
3 116 114 193
3 116 173 194
3 195 196 197
3 115 116 198
3 117 115 198
3 199 200 201
3 200 109 201
3 202 201 203
3 201 109 203
3 80 202 203
3 109 1 203
3 0 80 203
3 1 0 203
3 204 205 206
3 120 121 206
3 122 82 207
3 82 138 207
3 138 85 207
3 85 208 207
3 13 51 209
3 87 13 209
3 51 18 209
3 18 66 209
3 61 87 209
3 123 61 209
3 66 123 209
3 62 123 210
3 123 67 210
3 124 62 210
3 37 124 210
3 67 69 210
3 92 37 210
3 69 92 210
3 126 125 211
3 125 73 211
3 211 73 212
3 73 83 212
3 213 129 214
3 98 131 215
3 131 101 215
3 101 147 215
3 212 83 216
3 83 137 216
3 217 212 216
3 133 132 218
3 208 219 218
3 208 85 220
3 219 208 220
3 85 42 220
3 156 152 221
3 218 219 221
3 219 220 221
3 86 139 222
3 31 86 222
3 139 140 222
3 141 89 223
3 89 33 223
3 33 35 223
3 35 94 223
3 145 126 224
3 126 149 224
3 106 225 226
3 107 106 226
3 225 227 226
3 113 107 226
3 227 151 226
3 151 113 226
3 164 163 228
3 181 164 228
3 184 181 228
3 165 110 229
3 110 11 229
3 11 112 229
3 166 155 230
3 155 159 230
3 159 197 230
3 197 196 230
3 169 170 231
3 189 169 231
3 191 189 231
3 170 172 231
3 174 191 231
3 172 174 231
3 161 112 232
3 163 162 233
3 228 163 233
3 184 228 233
3 168 177 234
3 170 168 234
3 171 170 234
3 234 177 235
3 177 176 235
3 171 234 235
3 235 176 236
3 196 237 236
3 3 178 238
3 178 182 238
3 182 179 238
3 4 3 238
3 179 14 238
3 24 4 238
3 14 24 238
3 179 183 239
3 183 186 239
3 186 188 239
3 240 16 239
3 188 240 239
3 15 179 239
3 16 15 239
3 185 167 241
3 187 185 241
3 167 169 241
3 169 189 241
3 189 187 241
3 191 192 242
3 171 235 243
3 235 236 243
3 236 237 243
3 116 194 244
3 198 116 244
3 202 198 244
3 201 202 244
3 159 158 245
3 197 159 245
3 195 197 245
3 158 41 245
3 41 43 245
3 196 195 246
3 237 196 246
3 199 237 246
3 195 200 246
3 200 199 246
3 195 245 247
3 245 43 247
3 118 117 248
3 117 198 248
3 198 202 248
3 202 80 248
3 79 118 248
3 80 79 248
3 204 206 249
3 132 204 249
3 218 132 249
3 208 218 249
3 206 121 250
3 121 122 250
3 249 206 250
3 122 207 250
3 208 249 250
3 207 208 250
3 128 149 251
3 129 128 251
3 214 129 251
3 213 214 252
3 134 213 252
3 204 132 252
3 132 134 252
3 40 8 253
3 142 94 253
3 10 40 253
3 94 95 253
3 105 10 253
3 95 98 253
3 98 215 253
3 8 142 253
3 215 105 253
3 147 146 254
3 146 150 254
3 255 225 254
3 150 255 254
3 256 227 257
3 129 213 258
3 213 134 258
3 137 78 259
3 216 137 259
3 151 135 260
3 152 151 260
3 135 133 260
3 133 218 260
3 156 221 261
3 157 156 261
3 41 157 261
3 221 220 261
3 220 42 261
3 42 41 261
3 31 222 262
3 7 31 262
3 142 7 262
3 222 140 263
3 262 222 263
3 140 141 263
3 141 223 263
3 142 262 263
3 223 94 263
3 94 142 263
3 100 145 264
3 101 100 264
3 147 101 264
3 145 224 264
3 224 149 264
3 149 148 264
3 148 147 264
3 160 165 265
3 165 229 265
3 229 112 265
3 161 160 265
3 112 161 265
3 176 175 266
3 236 176 266
3 230 196 266
3 196 236 266
3 112 50 267
3 232 112 267
3 50 113 267
3 113 166 267
3 162 161 268
3 161 232 268
3 233 162 268
3 184 233 269
3 167 184 269
3 168 167 269
3 240 188 270
3 188 190 270
3 16 240 270
3 242 192 271
3 17 242 271
3 192 114 271
3 53 17 271
3 114 53 271
3 172 171 272
3 171 243 272
3 173 172 272
3 194 173 272
3 243 237 273
3 272 243 273
3 237 199 273
3 194 272 273
3 199 194 273
3 194 199 274
3 199 201 274
3 244 194 274
3 201 244 274
3 195 247 275
3 200 195 275
3 247 43 275
3 109 200 275
3 43 108 275
3 108 109 275
3 149 126 276
3 126 211 276
3 251 149 276
3 217 277 278
3 214 251 278
3 277 214 278
3 214 277 279
3 277 205 279
3 252 214 279
3 205 204 279
3 204 252 279
3 105 215 280
3 106 105 280
3 225 106 280
3 215 147 280
3 147 254 280
3 254 225 280
3 225 255 281
3 227 225 281
3 255 150 281
3 150 130 281
3 257 227 281
3 281 130 282
3 130 129 282
3 129 258 282
3 257 281 282
3 256 257 282
3 258 256 282
3 227 256 283
3 151 227 283
3 256 258 283
3 258 134 283
3 134 135 283
3 135 151 283
3 217 216 284
3 216 259 284
3 277 217 284
3 205 277 284
3 259 78 285
3 284 259 285
3 78 120 285
3 205 284 285
3 120 206 285
3 206 205 285
3 152 260 286
3 260 218 286
3 218 221 286
3 221 152 286
3 232 267 287
3 266 175 287
3 233 268 288
3 268 232 288
3 269 233 288
3 232 287 288
3 287 175 288
3 270 190 289
3 190 191 289
3 16 270 289
3 191 242 289
3 242 17 289
3 17 16 289
3 276 211 290
3 211 212 290
3 251 276 290
3 212 217 290
3 278 251 290
3 217 278 290
3 287 267 291
3 267 166 291
3 266 287 291
3 166 230 291
3 230 266 291
3 269 288 292
3 168 269 292
3 288 175 292
3 177 168 292
3 175 177 292
