ply
format ascii 1.0
element vertex 342
property float x
property float y
property float z
element face 680
property list uchar int vertex_indices
end_header
0.037444 0.095815 0.099877
0.044457 0.095570 0.102760
0.045204 0.105917 0.098180
0.041592 0.105002 0.096379
0.051222 0.114149 0.094993
0.123236 0.162681 0.002009
0.120749 0.093144 0.079871
0.122066 0.084639 0.077672
0.061749 0.119986 0.095267
0.053240 0.162681 0.037591
0.111092 0.162681 0.030542
0.104028 0.116468 0.090087
0.114461 0.162681 0.026487
0.117641 0.099406 0.085130
0.121459 0.162681 0.012383
0.119680 0.162681 0.017346
0.072706 0.163184 0.044114
0.094530 0.163184 0.041252
0.035082 0.163184 0.012660
0.033283 0.162681 -0.008061
0.036253 0.162681 -0.018159
-0.042530 0.014836 0.046237
0.051072 0.082391 -0.036252
0.044840 0.162681 -0.031356
0.052870 0.162681 -0.038161
0.057145 0.080270 -0.040082
0.093130 0.050712 -0.029603
0.014412 -0.042692 0.046237
0.087725 0.050223 -0.031857
0.093658 0.055490 -0.034781
0.020961 -0.039813 0.046237
0.100168 0.051126 -0.023542
0.029219 -0.034065 0.046237
0.010012 -0.010500 0.108219
0.011594 -0.019291 0.106434
0.016377 -0.013347 0.106908
-0.006109 0.002454 0.109115
0.052925 0.075256 0.107797
-0.013630 0.014157 0.107248
0.049801 0.052691 0.108545
0.022630 0.085758 0.096414
0.109809 0.053201 -0.005652
0.112379 0.054717 0.008204
0.111478 0.053376 0.068182
-0.022510 0.039456 0.093171
0.011815 0.076758 0.093671
0.041735 0.162681 0.026842
0.036428 0.162681 0.017752
0.062669 0.162681 0.042269
0.070642 0.121048 0.097073
0.080106 0.163184 0.044373
0.090698 0.120990 0.095089
0.103062 0.162681 0.037348
0.118115 0.163184 -0.020354
0.112361 0.163184 0.028347
0.110454 0.110164 0.088847
-0.040596 0.018667 0.077536
0.033163 0.163184 -0.001972
0.033360 0.162681 0.007683
-0.044857 0.005044 0.046237
-0.045198 -0.000196 0.067586
-0.043973 0.007586 0.078726
-0.038352 0.020404 0.086425
0.038898 0.162681 -0.023347
-0.043993 -0.010705 0.067585
-0.041098 -0.018706 0.074358
-0.043385 -0.009930 0.080895
-0.042702 -0.015101 0.046237
0.057423 0.162681 -0.040819
0.055982 0.074349 -0.039007
0.058698 0.067589 -0.039255
0.083010 0.162681 -0.045460
0.093264 0.162681 -0.043082
0.090972 0.084935 -0.043350
0.087379 0.075122 -0.044067
0.096957 0.086154 -0.041056
0.110789 0.162681 -0.031677
0.110074 0.084961 -0.031678
0.104861 0.082391 -0.036252
0.082286 0.053950 -0.037399
0.088136 0.055021 -0.036874
0.088235 0.060281 -0.040281
0.097617 0.062233 -0.037000
0.101257 0.058681 -0.031982
0.097240 0.053285 -0.029959
0.107617 0.066323 -0.030509
0.107665 0.061750 -0.027461
0.107283 0.057733 -0.023784
0.106550 0.054320 -0.019508
0.111791 0.058229 -0.014905
0.073494 0.058346 -0.040503
0.077966 0.055189 -0.038733
-0.010659 -0.044007 0.046237
0.093603 0.077168 0.103739
0.082066 0.076203 0.106413
0.075917 0.052985 0.105705
0.103893 0.086084 0.100188
0.100121 0.093096 0.101661
0.097892 0.063840 0.100217
0.082141 0.041874 0.101449
0.099341 0.057069 0.097473
0.108540 0.072356 0.095768
-0.017302 -0.008498 0.107709
-0.006363 -0.018601 0.107647
-0.006981 -0.008508 0.108902
-0.001354 -0.012971 0.108605
-0.015101 0.037404 0.100650
0.040920 0.081100 0.105494
-0.027281 0.029382 0.096905
-0.019333 0.039811 0.096516
0.113391 0.094549 0.093420
0.111386 0.104294 0.092322
0.108581 0.101253 0.096023
0.115364 0.096534 0.090740
0.120012 0.068429 0.006636
0.121349 0.075866 -0.003116
0.122197 0.076592 0.067420
0.122381 0.081033 0.002107
0.121776 0.076125 0.075338
0.122708 0.088325 0.005423
0.121074 0.083102 0.081904
0.046470 0.163184 0.031496
0.071650 0.085878 0.107292
0.056391 0.111982 0.099592
0.076801 0.116114 0.100793
0.085182 0.113475 0.101273
0.079692 0.120270 0.098148
0.073188 0.111153 0.102842
0.075827 0.163184 -0.045186
0.097397 0.163184 -0.040807
0.088361 0.117676 0.098518
0.092808 0.109339 0.101118
0.097633 0.115225 0.096562
0.099678 0.118066 0.092687
0.105757 0.111090 0.093763
0.121901 0.163184 0.008512
0.115434 0.102864 0.087191
-0.043489 0.011587 0.072237
-0.042973 0.008276 0.084295
-0.042119 0.012550 0.083346
-0.029866 0.030111 0.093126
0.039308 0.163184 -0.023108
-0.044539 -0.001199 0.079935
-0.045192 -0.000111 0.046237
0.062191 0.061249 -0.038634
-0.035465 -0.028260 0.046237
-0.030389 -0.033664 0.046237
-0.040552 -0.018267 0.081593
-0.036146 -0.025890 0.082019
-0.034991 -0.024853 0.088759
0.067697 0.060281 -0.040281
0.073492 0.066093 -0.043560
0.082198 0.074378 -0.044843
0.087994 0.067178 -0.042795
0.082458 0.064843 -0.043219
0.082412 0.057192 -0.039810
0.115309 0.083965 -0.024959
0.117116 0.162681 -0.023265
0.112283 0.074580 -0.027810
0.118620 0.086902 -0.019031
0.099950 0.074349 -0.039007
0.101239 0.063420 -0.035071
0.100875 0.054567 -0.028121
0.117584 0.062937 0.002382
0.118958 0.067774 -0.005164
0.010258 -0.043845 0.072687
0.001498 -0.045054 0.073401
0.004507 -0.044945 0.046237
0.011287 -0.042364 0.084315
0.018644 -0.021071 0.104495
0.018913 -0.040531 0.077325
0.029943 -0.033352 0.074735
-0.042224 -0.009071 0.087244
-0.038989 -0.006666 0.095280
-0.036084 -0.014641 0.096501
-0.033846 -0.002785 0.101164
-0.030231 -0.020547 0.099547
-0.033048 -0.023101 0.094657
-0.026129 -0.028260 0.097482
-0.006068 -0.042823 0.087267
-0.007329 -0.044522 0.073968
0.003918 -0.041584 0.091229
-0.004637 -0.040871 0.092823
-0.002576 -0.038035 0.097461
-0.010610 -0.035671 0.098758
0.000118 -0.034334 0.101085
0.062662 0.039686 0.106429
0.085638 0.053355 0.103036
0.101460 0.075421 0.100536
0.115896 0.066862 0.085152
0.116507 0.078734 0.089614
0.113141 0.068088 0.089970
0.111387 0.083561 0.095442
-0.038954 0.002718 0.095709
-0.035520 0.005179 0.099271
-0.031407 0.008229 0.101921
-0.029512 0.000601 0.103836
-0.032090 0.016060 0.099401
-0.024620 0.004582 0.105628
-0.026434 -0.006600 0.105184
-0.014798 -0.028159 0.103291
-0.010870 -0.023693 0.105942
-0.016999 -0.018915 0.106234
0.000185 -0.022240 0.106813
0.003408 -0.029890 0.103699
-0.001320 -0.002553 0.109305
-0.016019 0.002647 0.107962
-0.027963 0.023111 0.099715
0.058712 0.092542 0.106209
0.094239 0.037347 0.088016
0.045810 -0.015424 0.090743
0.107799 0.050502 0.080538
0.115488 0.059164 0.073773
0.113746 0.059418 0.081763
0.103116 0.047686 0.087516
0.112075 0.060616 0.086610
0.104427 0.054260 0.091897
0.119885 0.067883 0.072930
0.119997 0.070632 0.077975
0.117261 0.065070 0.080145
0.118986 0.072953 0.083148
0.119238 0.081151 0.085925
0.099412 0.103927 0.100385
0.104793 0.097515 0.099125
0.117987 0.089411 0.088442
0.058535 0.163184 0.039994
0.060903 0.106889 0.103060
0.068911 0.105485 0.104376
0.068028 0.117078 0.099613
0.077229 0.124070 0.094478
0.061403 0.163184 -0.042065
0.067296 0.162681 -0.044467
0.077745 0.162681 -0.045740
0.075977 0.083932 -0.045235
0.102693 0.162681 -0.038404
0.109462 0.163184 -0.032309
0.076528 0.102752 0.105042
0.103067 0.107895 0.097396
-0.033870 0.023946 0.092922
-0.034880 0.025757 0.088244
-0.044120 -0.010120 0.046237
-0.040772 -0.019781 0.046237
-0.037851 -0.024973 0.067585
-0.024492 -0.038159 0.046237
-0.020574 -0.034737 0.094659
-0.013781 -0.039666 0.091199
0.077966 0.062121 -0.042575
0.122416 0.163184 -0.006237
0.122573 0.162681 -0.008497
0.121332 0.162681 -0.013620
0.121542 0.082698 -0.008440
0.122569 0.087268 -0.002774
0.116727 0.074355 -0.020105
0.119637 0.078261 -0.014184
0.092337 0.076202 -0.042724
0.093306 0.068201 -0.041273
0.107107 0.071364 -0.032940
0.100794 0.068685 -0.037387
0.115264 0.060499 -0.006843
0.085799 0.030895 0.093234
0.085279 0.033482 0.095912
0.040065 -0.016956 0.096727
0.094930 0.046036 0.095749
0.020633 -0.038208 0.086703
0.012448 -0.040687 0.089191
0.028136 -0.034183 0.083734
0.026514 -0.036113 0.075649
-0.043436 -0.000431 0.085942
-0.041140 -0.003418 0.092085
-0.041600 0.000855 0.091238
-0.038496 -0.016602 0.091188
-0.030842 -0.010327 0.102510
-0.026582 -0.017208 0.103313
-0.000544 -0.045209 0.046237
0.002634 -0.043433 0.085968
-0.021182 -0.023213 0.103573
-0.018063 -0.031881 0.099539
-0.004004 -0.027380 0.105100
-0.007624 -0.031900 0.102462
0.005764 -0.038904 0.095648
0.066661 0.034919 0.104754
0.068255 0.062724 0.107758
0.109124 0.064921 0.092860
-0.041316 0.009427 0.089221
-0.022231 -0.013166 0.105982
-0.026751 0.011848 0.103746
0.117522 0.061898 0.064319
0.107746 0.089431 0.098115
0.115153 0.086766 0.092181
0.119837 0.091522 0.084290
0.051634 0.094514 0.104820
0.081830 0.123518 0.094850
0.048774 0.163184 -0.034430
0.077812 0.092590 0.106399
-0.030848 -0.033012 0.074704
-0.030335 -0.032502 0.082165
-0.026971 -0.035348 0.082133
-0.028402 -0.030561 0.092038
-0.015513 -0.042568 0.046237
-0.015438 -0.041726 0.081617
-0.022309 -0.036693 0.088768
0.063595 0.076202 -0.042724
0.067216 0.084605 -0.043970
0.068501 0.074550 -0.044014
0.067903 0.066550 -0.042632
0.073816 0.076353 -0.044967
0.120870 0.090637 -0.013195
0.112838 0.065445 -0.022316
0.119678 0.074376 -0.011446
0.011158 -0.031176 0.101715
0.022209 -0.026790 0.100809
0.029922 -0.016678 0.102453
0.099711 0.047124 0.091906
0.025988 -0.034482 0.088738
0.024202 -0.033368 0.093424
0.034727 -0.027927 0.087059
0.033846 -0.027381 0.091334
0.030379 -0.028888 0.093676
0.029658 -0.026101 0.097345
0.039727 -0.020444 0.093549
-0.024677 -0.026784 0.099802
0.014117 -0.038261 0.093311
-0.038935 0.011095 0.093414
-0.040578 0.013646 0.088051
-0.023162 0.023133 0.102437
0.089581 0.093839 0.104656
-0.029230 -0.031394 0.088954
-0.023823 -0.038382 0.074624
-0.023343 -0.037849 0.082031
0.077966 0.071051 -0.044728
0.116585 0.066618 -0.014274
0.008183 -0.035401 0.099146
0.014659 -0.026360 0.103448
0.036761 -0.017109 0.098966
-0.035475 0.017344 0.095355
-0.016295 0.020645 0.105509
0.088521 0.104431 0.103384
0.094882 0.099224 0.102783
-0.016915 -0.042047 0.067584
0.016308 -0.035082 0.096616
0.073723 0.025311 0.099109
0.019012 -0.031220 0.099095
3 0 1 2
3 3 0 2
3 3 2 4
3 5 6 7
3 4 8 9
3 10 11 12
3 13 6 14
3 15 13 14
3 6 5 14
3 16 17 18
3 19 20 21
3 22 23 24
3 22 24 25
3 26 27 28
3 29 26 28
3 27 26 30
3 31 32 30
3 33 34 35
3 36 37 38
3 37 36 39
3 0 3 40
3 32 41 42
3 43 32 42
3 44 45 46
3 45 40 46
3 40 3 46
3 18 47 46
3 47 44 46
3 48 8 49
3 16 48 49
3 17 16 50
3 17 51 52
3 18 17 53
3 17 52 54
3 52 10 54
3 10 12 54
3 12 15 54
3 53 17 54
3 12 11 55
3 15 12 55
3 21 56 57
3 56 58 57
3 19 21 57
3 58 18 57
3 18 53 57
3 59 60 61
3 58 56 62
3 59 21 63
3 21 20 63
3 23 59 63
3 64 65 66
3 65 64 67
3 25 24 68
3 22 25 69
3 70 67 69
3 71 72 73
3 74 71 73
3 72 75 73
3 76 77 78
3 27 79 80
3 28 27 80
3 81 29 80
3 29 28 80
3 29 81 82
3 83 29 82
3 30 26 84
3 26 29 84
3 29 83 84
3 31 30 84
3 83 85 86
3 87 83 86
3 32 31 88
3 41 32 88
3 88 87 89
3 41 88 89
3 90 91 92
3 93 94 95
3 93 96 97
3 98 99 100
3 98 100 101
3 102 103 104
3 103 105 104
3 36 102 104
3 0 40 106
3 1 0 106
3 38 37 107
3 108 106 109
3 44 108 109
3 106 40 109
3 45 44 109
3 40 45 109
3 110 111 112
3 111 110 113
3 114 115 116
3 115 117 116
3 7 118 116
3 117 119 116
3 119 5 116
3 5 7 116
3 118 7 120
3 18 46 121
3 3 4 121
3 46 3 121
3 4 9 121
3 16 18 121
3 37 39 122
3 2 1 123
3 4 2 123
3 8 4 123
3 124 125 126
3 125 124 127
3 57 53 128
3 128 53 129
3 71 128 129
3 72 71 129
3 126 125 130
3 125 131 130
3 131 132 130
3 132 51 130
3 51 132 133
3 52 51 133
3 11 10 133
3 10 52 133
3 133 132 134
3 11 133 134
3 112 111 134
3 55 11 134
3 111 55 134
3 54 15 135
3 53 54 135
3 15 14 135
3 14 5 135
3 55 111 136
3 111 113 136
3 113 13 136
3 13 15 136
3 15 55 136
3 59 61 137
3 21 59 137
3 56 21 137
3 61 138 139
3 137 61 139
3 56 137 139
3 62 56 139
3 108 44 140
3 44 47 140
3 57 128 141
3 19 57 141
3 20 19 141
3 63 20 141
3 23 63 141
3 60 64 142
3 64 66 142
3 61 60 142
3 138 61 142
3 60 59 143
3 59 23 143
3 23 22 143
3 70 144 145
3 144 146 145
3 66 65 147
3 65 148 147
3 148 149 147
3 90 150 151
3 71 74 152
3 152 74 153
3 154 152 153
3 81 154 153
3 79 91 155
3 154 81 155
3 80 79 155
3 81 80 155
3 77 76 156
3 76 157 156
3 158 77 156
3 157 159 156
3 75 78 160
3 83 82 161
3 85 83 161
3 84 83 162
3 31 84 162
3 83 87 162
3 88 31 162
3 87 88 162
3 114 163 164
3 115 114 164
3 165 166 167
3 27 165 167
3 91 79 167
3 79 27 167
3 166 165 168
3 35 34 169
3 165 27 170
3 168 165 170
3 27 30 170
3 32 43 171
3 142 66 172
3 66 147 172
3 173 174 175
3 176 174 177
3 178 176 177
3 166 179 180
3 179 181 182
3 183 184 182
3 184 183 185
3 33 35 186
3 99 98 187
3 93 95 187
3 98 93 187
3 93 98 188
3 98 101 188
3 96 93 188
3 189 190 191
3 190 101 191
3 188 101 192
3 96 188 192
3 101 190 192
3 173 175 193
3 175 194 193
3 194 175 195
3 175 196 195
3 197 194 195
3 198 196 199
3 102 198 199
3 200 201 202
3 201 103 202
3 103 102 202
3 103 201 203
3 105 103 203
3 204 34 203
3 33 105 203
3 34 33 203
3 104 105 205
3 36 104 205
3 105 33 205
3 33 39 205
3 39 36 205
3 198 102 206
3 102 36 206
3 38 198 206
3 36 38 206
3 106 108 207
3 107 37 208
3 37 122 208
3 209 210 211
3 43 212 211
3 212 213 211
3 209 211 214
3 211 213 214
3 214 213 215
3 216 214 215
3 213 189 215
3 189 191 215
3 114 116 217
3 118 218 217
3 116 118 217
3 213 212 219
3 212 217 219
3 189 213 219
3 217 218 219
3 189 219 220
3 190 189 220
3 219 218 220
3 221 190 220
3 218 118 220
3 120 221 220
3 118 120 220
3 222 97 223
3 113 110 224
3 190 221 224
3 221 120 224
3 121 9 225
3 9 8 225
3 8 48 225
3 48 16 225
3 16 121 225
3 123 1 226
3 208 227 226
3 227 127 226
3 123 226 228
3 226 127 228
3 8 123 228
3 49 8 228
3 127 124 228
3 124 126 228
3 126 49 228
3 49 126 229
3 16 49 229
3 50 16 229
3 141 128 230
3 68 24 230
3 231 68 230
3 128 231 230
3 231 128 232
3 128 71 232
3 152 233 232
3 71 152 232
3 72 129 234
3 75 72 234
3 78 75 234
3 76 78 234
3 129 53 235
3 234 129 235
3 76 234 235
3 157 76 235
3 53 157 235
3 208 122 236
3 227 208 236
3 127 227 236
3 125 127 236
3 131 222 237
3 132 131 237
3 222 223 237
3 223 112 237
3 134 132 237
3 112 134 237
3 108 140 238
3 62 238 239
3 238 140 239
3 140 47 239
3 58 62 239
3 18 58 239
3 47 18 239
3 60 143 240
3 143 22 240
3 64 60 240
3 67 64 240
3 22 69 240
3 69 67 240
3 67 70 241
3 65 67 241
3 70 145 241
3 65 241 242
3 241 145 242
3 148 65 242
3 146 144 243
3 144 150 243
3 184 244 245
3 179 182 245
3 182 184 245
3 151 154 246
3 90 151 246
3 91 90 246
3 155 91 246
3 154 155 246
3 53 135 247
3 135 5 247
3 5 248 247
3 157 53 249
3 53 247 249
3 159 157 249
3 247 248 249
3 115 250 251
3 117 115 251
3 248 5 251
3 119 117 251
3 5 119 251
3 158 156 252
3 156 159 252
3 159 253 252
3 74 73 254
3 153 74 254
3 73 75 254
3 75 160 254
3 153 254 255
3 81 153 255
3 254 160 255
3 82 81 255
3 160 78 256
3 78 77 256
3 85 161 256
3 77 158 256
3 158 85 256
3 255 160 257
3 82 255 257
3 160 256 257
3 161 82 257
3 256 161 257
3 41 89 258
3 42 41 258
3 163 42 258
3 164 163 258
3 210 209 259
3 260 261 259
3 209 214 259
3 99 260 262
3 100 99 262
3 216 100 262
3 168 170 263
3 264 168 263
3 170 265 263
3 170 30 266
3 30 32 266
3 265 170 266
3 32 171 266
3 171 265 266
3 142 172 267
3 138 142 267
3 267 172 268
3 172 173 268
3 269 267 268
3 173 193 268
3 193 269 268
3 172 147 270
3 147 149 270
3 173 172 270
3 174 173 270
3 149 177 270
3 177 174 270
3 174 176 271
3 175 174 271
3 176 272 271
3 196 175 271
3 272 199 271
3 199 196 271
3 92 91 273
3 180 92 273
3 166 180 273
3 167 166 273
3 91 167 273
3 179 166 274
3 166 168 274
3 181 179 274
3 168 264 274
3 264 181 274
3 200 202 275
3 178 244 276
3 244 184 276
3 200 275 276
3 184 200 276
3 201 200 277
3 203 201 277
3 204 203 277
3 200 184 278
3 184 185 278
3 277 200 278
3 185 204 278
3 204 277 278
3 182 181 279
3 183 182 279
3 35 169 280
3 186 35 280
3 95 186 280
3 99 187 280
3 187 95 280
3 33 186 281
3 39 33 281
3 186 95 281
3 122 39 281
3 95 94 281
3 94 122 281
3 100 216 282
3 216 215 282
3 101 100 282
3 215 191 282
3 191 101 282
3 267 269 283
3 138 267 283
3 272 275 284
3 199 272 284
3 275 202 284
3 102 199 284
3 202 102 284
3 197 195 285
3 195 196 285
3 196 198 285
3 207 197 285
3 43 42 286
3 42 163 286
3 212 43 286
3 163 114 286
3 217 212 286
3 114 217 286
3 97 96 287
3 96 192 287
3 223 97 287
3 112 223 287
3 192 110 287
3 110 112 287
3 192 190 288
3 110 192 288
3 190 224 288
3 224 110 288
3 113 224 289
3 13 113 289
3 224 120 289
3 6 13 289
3 120 7 289
3 7 6 289
3 107 208 290
3 1 107 290
3 208 226 290
3 226 1 290
3 229 126 291
3 126 130 291
3 50 229 291
3 130 51 291
3 51 17 291
3 17 50 291
3 141 230 292
3 23 141 292
3 24 23 292
3 230 24 292
3 122 94 293
3 236 122 293
3 242 145 294
3 148 242 294
3 145 146 294
3 295 148 294
3 296 295 294
3 177 149 297
3 178 177 297
3 244 178 297
3 243 150 298
3 150 90 298
3 90 92 298
3 180 179 299
3 179 245 299
3 244 297 300
3 299 245 300
3 245 244 300
3 69 25 301
3 25 68 301
3 68 231 301
3 70 69 301
3 302 303 301
3 231 302 301
3 70 301 304
3 144 70 304
3 301 303 304
3 150 144 304
3 303 151 304
3 151 150 304
3 302 231 305
3 231 232 305
3 303 302 305
3 151 303 305
3 233 152 305
3 232 233 305
3 159 249 306
3 253 159 306
3 249 248 306
3 250 253 306
3 251 250 306
3 248 251 306
3 87 86 307
3 85 158 307
3 86 85 307
3 89 87 307
3 158 252 307
3 252 253 308
3 253 250 308
3 115 164 308
3 250 115 308
3 204 185 309
3 169 310 311
3 280 169 311
3 99 280 311
3 260 259 312
3 259 214 312
3 262 260 312
3 214 216 312
3 216 262 312
3 263 265 313
3 314 263 313
3 313 265 315
3 265 171 315
3 171 43 315
3 316 313 315
3 210 316 315
3 211 210 315
3 43 211 315
3 314 313 317
3 313 316 317
3 318 314 317
3 318 317 319
3 317 316 319
3 316 210 319
3 261 318 319
3 210 259 319
3 259 261 319
3 176 178 320
3 272 176 320
3 178 276 320
3 275 272 320
3 276 275 320
3 181 264 321
3 279 181 321
3 264 263 321
3 263 314 321
3 269 193 322
3 283 269 322
3 193 194 322
3 138 283 323
3 139 138 323
3 283 322 323
3 62 139 323
3 238 62 323
3 207 285 324
3 106 207 324
3 1 106 324
3 293 94 325
3 94 93 325
3 93 97 325
3 148 295 326
3 149 148 326
3 295 296 326
3 297 149 326
3 296 300 326
3 300 297 326
3 294 146 327
3 146 243 327
3 296 294 327
3 296 327 328
3 327 299 328
3 300 296 328
3 299 300 328
3 151 305 329
3 305 152 329
3 152 154 329
3 154 151 329
3 89 307 330
3 307 252 330
3 258 89 330
3 252 308 330
3 164 258 330
3 308 164 330
3 183 279 331
3 185 183 331
3 309 185 331
3 204 309 332
3 309 310 332
3 34 204 332
3 169 34 332
3 310 169 332
3 310 318 333
3 318 261 333
3 311 310 333
3 323 322 334
3 322 194 334
3 194 197 334
3 238 323 334
3 197 207 334
3 207 108 334
3 108 238 334
3 285 198 335
3 198 38 335
3 324 285 335
3 38 107 335
3 107 1 335
3 1 324 335
3 236 293 336
3 293 325 336
3 125 236 336
3 131 125 336
3 336 325 337
3 325 97 337
3 131 336 337
3 222 131 337
3 97 222 337
3 243 298 338
3 327 243 338
3 298 92 338
3 299 327 338
3 92 180 338
3 180 299 338
3 279 321 339
3 331 279 339
3 321 314 339
3 311 333 340
3 333 261 340
3 261 260 340
3 99 311 340
3 260 99 340
3 331 339 341
3 309 331 341
3 339 314 341
3 310 309 341
3 314 318 341
3 318 310 341
