ply
format ascii 1.0
element vertex 565
property float x
property float y
property float z
element face 1126
property list uchar int vertex_indices
end_header
0.087031 0.067518 0.008877
0.084213 0.067518 -0.011628
0.061887 0.067518 -0.000060
0.108588 0.065510 0.020784
0.111543 0.065510 0.015218
0.114041 0.065008 0.009368
0.114497 0.000016 0.007356
0.115068 0.065008 0.003068
0.115202 0.000016 -0.000060
0.115058 0.065008 -0.003315
-0.021393 0.032715 0.030035
0.037927 0.065510 0.006283
-0.019456 0.034328 0.020010
0.065394 -0.025487 -0.036582
-0.028389 -0.022514 -0.014112
0.065221 -0.021420 -0.037174
0.070987 -0.025487 -0.037766
0.065642 -0.028472 -0.035732
0.104768 0.065510 0.025795
0.109011 0.065008 0.021054
0.066382 0.067518 0.010289
0.066382 0.067518 -0.010408
0.090075 0.067518 -0.001988
0.113554 0.065510 0.009247
0.054502 0.065510 0.032022
0.049584 0.065510 0.028102
0.045367 0.065510 0.023438
-0.020270 0.030576 0.042052
0.039460 0.065510 0.012381
-0.031113 0.024389 0.026477
-0.028999 0.026920 0.015839
-0.031487 0.023848 0.016909
-0.032694 -0.015663 -0.014112
0.070839 0.000016 -0.038870
0.070851 -0.014000 -0.038776
0.065109 -0.014000 -0.037560
0.070905 -0.021420 -0.038377
0.071105 -0.028472 -0.036889
0.071265 -0.030774 -0.035694
0.089283 0.065008 -0.036900
0.083120 0.065008 -0.038562
0.089113 0.065510 -0.036428
0.095094 0.065008 -0.034260
0.108520 0.065510 -0.021009
0.108942 0.065008 -0.021281
0.106032 0.000016 -0.025245
0.105056 0.065008 -0.026345
0.111953 0.065008 -0.015653
0.111399 0.000016 -0.016901
0.000972 -0.018418 0.057446
0.084490 -0.030774 0.034888
0.084774 -0.028472 0.036060
0.007108 -0.010790 0.058299
0.084981 -0.025487 0.036921
0.085126 -0.021420 0.037520
0.009618 -0.003694 0.058383
0.083870 0.065510 0.037785
0.083952 0.065008 0.038280
0.089403 0.065008 0.036738
0.089232 0.065510 0.036266
0.089991 0.000016 0.036532
0.095205 0.065008 0.034078
0.100938 0.065008 0.030096
0.102840 0.044602 0.028480
0.105141 0.065008 0.026131
0.077013 0.067518 0.014068
0.077013 0.067518 -0.014187
0.097581 -0.028472 0.030224
0.093002 -0.030774 0.031644
0.096882 -0.030774 0.029241
0.114497 0.000016 -0.007476
0.115031 -0.014000 -0.002539
0.111399 0.000016 0.016782
0.108900 -0.014000 0.021073
0.112004 0.065008 0.015417
0.113293 0.036151 0.012007
0.114568 0.065510 0.003028
0.114557 0.065510 -0.003273
-0.009519 0.012141 0.059872
-0.006286 0.012245 0.059876
-0.004915 0.016050 0.058866
0.059991 0.065510 0.035091
-0.000010 -0.003694 0.060248
0.004969 0.004400 0.059407
0.008009 0.000964 0.058870
-0.001020 0.012624 0.059420
-0.022074 0.024891 0.049906
-0.019839 0.024873 0.050823
-0.019576 0.027931 0.047483
-0.020218 0.032772 0.034000
0.094960 0.065510 0.033640
-0.022668 0.032440 0.021781
-0.033667 0.020435 0.017824
-0.034443 0.017807 -0.012105
-0.025860 0.028856 -0.012105
-0.026246 0.029629 0.014650
-0.020123 0.033926 0.012049
-0.036273 0.000016 -0.014112
-0.035367 -0.008025 -0.014112
-0.036950 -0.011744 -0.012105
-0.038568 -0.004025 0.030083
-0.037730 -0.004104 0.040790
-0.038318 0.000016 0.037466
0.001187 -0.038606 -0.012105
0.090896 -0.036022 -0.016154
0.097549 -0.036022 -0.004207
0.076047 -0.018732 -0.038934
-0.022667 -0.028236 -0.014112
-0.015816 -0.032541 -0.014112
0.065979 -0.030774 -0.034575
0.076047 -0.026434 -0.037878
0.071195 0.065510 -0.038398
0.076760 0.065510 -0.038697
0.094850 0.065510 -0.033821
0.100399 0.065008 -0.030710
0.098740 0.000016 -0.031972
0.104684 0.065510 -0.026008
0.111493 0.065510 -0.015454
0.114010 0.065008 -0.009611
0.088273 -0.032581 0.032023
0.084110 -0.032581 0.033313
0.092238 -0.032581 0.030216
0.088850 -0.030774 0.033537
-0.004513 -0.010539 0.060077
0.001312 -0.013744 0.058881
0.089814 -0.021420 0.036067
0.089957 -0.014000 0.036443
0.098740 0.000016 0.031853
0.089594 -0.025487 0.035491
0.093989 -0.025487 0.033488
0.093571 -0.028472 0.032708
0.096218 -0.035628 -0.017002
0.113157 -0.014000 0.012138
0.114403 -0.014000 -0.007457
0.108562 -0.021420 0.020855
0.105958 -0.014000 0.025064
0.078404 0.065008 0.039015
0.065773 0.065008 0.037714
0.065904 0.065510 0.037230
0.072086 0.065510 0.038381
-0.015391 -0.000725 0.060632
-0.014787 -0.006135 0.060335
-0.010379 -0.006735 0.060672
-0.014100 -0.009346 0.059945
-0.010525 0.000053 0.060998
0.003289 -0.000057 0.059830
-0.021528 0.027947 0.046202
0.041962 0.065510 0.018151
0.100185 0.065510 0.030119
-0.035262 0.017153 0.028707
-0.034351 0.017441 0.038767
-0.033366 0.020936 0.027707
-0.036958 0.012756 0.019074
-0.036766 0.013097 0.029446
-0.035501 0.016721 0.018554
-0.030654 0.023725 -0.012105
-0.025714 0.030156 0.023473
-0.023273 0.031963 0.013377
-0.020213 0.033037 -0.012105
-0.037980 -0.007816 -0.012105
-0.038090 -0.008220 0.019382
-0.037055 -0.012409 0.019105
-0.037932 -0.008444 0.029933
-0.036866 -0.012742 0.029491
-0.038894 0.000016 0.022589
-0.038716 0.000016 0.031305
-0.038529 0.004453 0.030082
-0.037087 -0.008602 0.040470
-0.035999 -0.012969 0.039820
-0.003637 -0.015548 0.058971
-0.037725 0.000016 0.042143
-0.036675 -0.004132 0.046090
-0.036941 0.000016 0.045894
-0.036637 0.004569 0.046066
-0.035981 0.000016 0.048918
-0.035847 -0.004143 0.048675
-0.035810 0.004581 0.048648
-0.033685 -0.019168 -0.012105
-0.035383 -0.016840 0.028768
-0.023327 -0.027768 0.044692
-0.024641 -0.027764 0.042802
-0.020414 -0.030429 0.042176
-0.016225 -0.035764 0.018244
-0.013539 -0.036717 0.009346
-0.012791 -0.036931 0.016380
-0.014813 -0.035905 0.025581
-0.018538 -0.032660 0.037805
-0.020353 -0.032656 0.034100
-0.016211 -0.034475 0.033397
-0.012523 -0.034385 0.037932
0.000168 -0.038675 0.002324
-0.008251 -0.036844 0.029322
-0.007776 -0.037734 0.020818
-0.001110 -0.037889 0.023359
-0.002654 -0.036530 0.033083
0.002200 -0.038497 0.012789
0.088737 -0.036022 0.017787
0.086640 -0.034919 0.027740
0.079598 -0.033910 0.032085
0.079314 -0.034919 0.029510
0.087563 -0.033910 0.030161
0.094788 -0.033910 0.026297
0.091313 -0.035628 0.021409
0.093287 -0.034919 0.024185
0.096219 -0.034919 0.021806
0.071112 0.065008 -0.038894
0.076769 0.065008 -0.039199
0.080337 -0.014000 -0.038886
0.089991 0.000016 -0.036651
0.076047 -0.023247 -0.038500
0.083029 0.065510 -0.038068
0.094279 -0.021420 -0.034151
0.098684 -0.014000 -0.031895
0.098451 -0.021420 -0.031567
0.102262 -0.021420 -0.028475
0.102535 -0.014000 -0.028770
0.100086 0.065510 -0.030317
0.113523 0.065510 -0.009489
-0.010058 -0.036943 0.026429
-0.009175 -0.035735 0.034832
-0.005878 -0.035599 0.036449
0.079817 -0.032581 0.034066
0.005345 -0.016125 0.057503
0.085221 -0.014000 0.037911
0.094469 -0.014000 0.034387
0.098684 -0.014000 0.031775
0.095943 -0.032581 0.027921
0.099328 -0.032581 0.025175
0.100426 -0.030774 0.026366
0.089279 -0.028472 0.034664
0.098094 -0.025487 0.030945
0.098451 -0.021420 0.031448
0.076047 -0.034506 -0.031052
0.076047 -0.035210 -0.028687
0.109759 -0.032581 -0.006562
0.106770 -0.033910 -0.010158
0.108664 -0.032581 -0.010780
0.108322 -0.033910 -0.002112
0.113131 -0.028472 0.002299
0.111928 -0.030774 0.002222
0.113131 -0.028472 -0.002418
0.114015 -0.025487 -0.002474
0.110950 -0.021420 0.016568
0.114015 -0.025487 0.002355
0.113403 -0.025487 0.007145
0.114630 -0.021420 0.002394
0.114403 -0.014000 0.007338
0.111313 -0.014000 -0.016860
0.113157 -0.014000 -0.012257
0.112775 -0.021420 -0.012131
0.114008 -0.021420 -0.007381
0.102262 -0.021420 0.028356
0.102535 -0.014000 0.028651
0.106032 0.000016 0.025126
-0.015090 0.002216 0.060632
-0.014513 0.007108 0.060262
-0.026267 0.004615 0.057790
-0.010482 0.006499 0.060696
-0.034851 0.000016 0.051373
-0.034687 0.004592 0.051127
-0.031225 0.004607 0.055360
-0.028376 0.009125 0.056224
-0.030679 0.009119 0.054756
-0.029681 0.013481 0.053762
-0.032589 0.009109 0.052826
-0.027434 0.013486 0.055215
-0.023642 0.017609 0.054768
-0.007968 0.016354 0.058439
-0.021924 0.021425 0.052970
-0.009878 0.014171 0.059196
0.072035 0.065008 0.038880
0.078374 0.065510 0.038515
-0.006290 -0.003684 0.060833
-0.006729 0.009279 0.060368
-0.024108 0.024900 0.048566
-0.028546 0.027470 0.025052
-0.027428 0.027813 0.034129
-0.024516 0.030475 0.032154
-0.018680 0.030560 0.043596
-0.038020 0.008604 0.019368
-0.037097 0.011301 -0.012105
-0.032694 0.015694 -0.014112
-0.037859 0.008838 0.029907
-0.037014 0.009002 0.040429
0.039412 0.065510 -0.012357
0.037902 0.065510 -0.006253
0.041891 0.065510 -0.018136
0.045275 0.065510 -0.023437
-0.028389 0.022546 -0.014112
0.059643 0.065008 -0.035603
0.065625 0.065008 -0.037793
0.053585 0.065008 -0.032062
-0.028942 -0.025747 -0.012105
-0.026078 -0.028629 -0.012105
-0.022931 -0.031191 -0.012105
-0.023401 -0.031842 0.013431
-0.019529 -0.033412 -0.012105
-0.015916 -0.035261 -0.012105
-0.019573 -0.034235 0.020074
-0.016939 -0.035450 0.010731
-0.038782 0.000016 -0.012105
-0.038593 -0.003802 -0.012105
-0.031576 -0.017270 0.048491
-0.033429 -0.017214 0.043783
-0.030681 -0.021122 0.044664
-0.008204 -0.010983 0.060126
-0.037691 0.004539 0.040775
-0.036044 -0.008655 0.045666
-0.034960 -0.013043 0.044895
-0.034159 -0.013070 0.047366
-0.034721 -0.004153 0.051159
-0.034132 -0.008693 0.050635
-0.035972 0.009057 0.045615
-0.035897 0.013329 0.039757
-0.034857 0.013405 0.044821
-0.035512 -0.015543 -0.012105
-0.034476 -0.017124 0.038848
-0.033502 -0.020665 0.027780
-0.032536 -0.020990 0.037570
-0.031485 -0.022584 -0.012105
-0.029140 -0.026733 0.015900
-0.031257 -0.024162 0.026556
-0.021527 -0.032598 0.030126
-0.022799 -0.032321 0.021853
-0.026463 -0.027720 0.038639
-0.022714 -0.030426 0.038469
-0.031641 -0.013108 0.051950
-0.030169 -0.017286 0.050637
-0.028353 -0.017296 0.052495
-0.024381 -0.021165 0.052157
-0.026166 -0.017297 0.053924
-0.023750 -0.017292 0.054882
-0.027523 -0.013123 0.055307
-0.028434 -0.008722 0.056290
-0.025032 -0.013122 0.056273
-0.021674 -0.027763 0.046336
-0.016952 -0.030390 0.044938
-0.015754 -0.032618 0.040910
-0.012047 -0.032539 0.042841
-0.009021 -0.034281 0.039715
-0.001516 -0.034012 0.040708
-0.004066 -0.032307 0.043871
0.001930 -0.029878 0.046268
-0.012125 -0.036723 -0.012105
-0.008206 -0.037777 -0.012105
0.071480 -0.032581 -0.034088
-0.009297 -0.037760 0.014492
-0.018228 -0.034451 0.027891
-0.004193 -0.038416 -0.012105
-0.004204 -0.038187 0.018393
0.001155 -0.035284 0.037372
0.085427 -0.035628 0.024556
0.095816 -0.036022 0.009358
0.101072 -0.035628 -0.008285
0.102336 -0.035628 -0.001732
0.100811 -0.033910 0.020741
0.076047 0.000016 -0.039215
0.085221 -0.014000 -0.038030
0.089957 -0.014000 -0.036562
0.089814 -0.021420 -0.036186
0.094469 -0.014000 -0.034506
0.080293 -0.021420 -0.038487
0.076047 -0.028983 -0.037004
0.084491 -0.030774 -0.035007
0.079995 -0.030774 -0.035796
0.084774 -0.028472 -0.036180
0.084982 -0.025487 -0.037040
0.089279 -0.028472 -0.034783
0.089594 -0.025487 -0.035610
0.084110 -0.032581 -0.033433
0.088850 -0.030774 -0.033656
0.094789 -0.033910 -0.026416
0.092239 -0.032581 -0.030335
0.095944 -0.032581 -0.028040
0.096882 -0.030774 -0.029360
0.099328 -0.032581 -0.025294
0.097581 -0.028472 -0.030343
0.100426 -0.030774 -0.026485
0.101244 -0.028472 -0.027371
0.103577 -0.030774 -0.023183
0.105959 -0.014000 -0.025183
0.098094 -0.025487 -0.031064
0.101844 -0.025487 -0.028022
0.104501 -0.028472 -0.023959
-0.011770 -0.035840 0.032235
0.001313 -0.016648 0.058116
0.094279 -0.021420 0.034032
0.102337 -0.032581 0.022022
0.103246 -0.033910 0.017436
0.104922 -0.032581 0.018514
0.106285 -0.030774 0.019390
0.101244 -0.028472 0.027252
0.104501 -0.028472 0.023840
0.083034 -0.034919 -0.028977
0.093287 -0.034919 -0.024304
0.097976 -0.033910 -0.023829
0.102337 -0.032581 -0.022142
0.104923 -0.032581 -0.018633
0.108505 -0.030774 -0.015522
0.107043 -0.032581 -0.014826
0.110203 -0.030774 -0.011286
0.104309 -0.034919 -0.009349
0.105736 -0.034919 -0.001948
0.103577 -0.030774 0.023064
0.107299 -0.028472 0.020043
0.109594 -0.028472 0.015922
0.108044 -0.025487 0.020522
0.109759 -0.032581 0.006443
0.110203 -0.030774 0.011167
0.108664 -0.032581 0.010661
0.108505 -0.030774 0.015403
0.111348 -0.028472 0.011543
0.112189 -0.025487 0.011820
0.110311 -0.032581 -0.002239
0.111350 -0.030774 0.006749
0.110393 -0.025487 0.016302
0.111313 -0.014000 0.016740
0.112775 -0.021420 0.012012
0.114008 -0.021420 0.007262
0.115031 -0.014000 0.002420
0.112189 -0.025487 -0.011939
0.113403 -0.025487 -0.007265
0.112534 -0.028472 -0.007097
0.114630 -0.021420 -0.002513
0.105178 -0.025487 0.024409
-0.029775 -0.013119 0.053852
-0.028898 -0.004172 0.056865
-0.025877 -0.008724 0.057256
-0.032051 0.000016 0.054997
-0.030231 0.000016 0.056368
-0.028116 0.000016 0.057418
-0.026288 -0.004175 0.057824
-0.028874 0.004612 0.056830
-0.025831 0.000016 0.058124
-0.033547 0.000016 0.053372
-0.034062 0.009096 0.050575
-0.032981 0.013454 0.049660
-0.034057 0.013433 0.047287
-0.031543 0.013471 0.051863
-0.031452 0.017588 0.048389
-0.030047 0.017604 0.050530
-0.025824 0.009127 0.057190
-0.017073 0.021380 0.053826
-0.001705 0.004411 0.060420
-0.028234 0.017613 0.052384
-0.028122 0.021433 0.048845
-0.033304 0.017531 0.043692
-0.032396 0.021262 0.037477
-0.031332 0.021361 0.042243
-0.029495 0.021419 0.046778
-0.025815 0.024899 0.046843
-0.023178 0.027953 0.044564
-0.024490 0.027949 0.042679
-0.022568 0.030574 0.038355
-0.038530 0.004420 -0.012105
-0.035367 0.008057 -0.014112
0.037403 0.065510 0.000016
0.059853 0.065510 -0.035147
0.065758 0.065510 -0.037309
0.049474 0.065510 -0.028118
-0.020238 -0.033830 0.012097
-0.031474 -0.021089 0.042347
-0.029135 -0.024607 0.040619
-0.028341 -0.024639 0.042846
-0.022049 -0.021154 0.053099
-0.010414 -0.014303 0.058997
-0.006604 -0.017063 0.058207
-0.035232 -0.008676 0.048199
-0.033081 -0.013092 0.049744
-0.035618 -0.016414 0.018599
-0.031626 -0.023623 0.016968
-0.030220 -0.024507 0.036017
-0.026383 -0.029477 0.014709
-0.024660 -0.030327 0.032251
-0.025962 -0.024672 0.046970
-0.022214 -0.024665 0.050041
-0.019717 -0.027747 0.047620
-0.017576 -0.027722 0.048507
-0.014915 -0.030356 0.045786
-0.008671 -0.027550 0.049518
-0.013127 -0.027648 0.049371
-0.006464 -0.030155 0.046820
0.079817 -0.032581 -0.034185
0.071745 -0.033910 -0.032113
-0.005761 -0.038287 0.012589
0.085126 -0.021420 -0.037639
0.080225 -0.025487 -0.037874
0.076047 -0.030893 -0.035930
0.093571 -0.028472 -0.032827
0.088273 -0.032581 -0.032142
0.108900 -0.014000 -0.021192
0.105651 -0.021420 -0.024925
0.106285 -0.030774 -0.019510
0.101844 -0.025487 0.027902
0.079599 -0.033910 -0.032204
0.082233 -0.035628 -0.025665
0.090077 -0.034919 -0.026293
0.101067 -0.034919 -0.016153
0.111348 -0.028472 -0.011662
0.111350 -0.030774 -0.006869
0.106770 -0.033910 0.010039
0.107043 -0.032581 0.014706
0.110311 -0.032581 0.002119
0.112534 -0.028472 0.006978
0.105651 -0.021420 0.024806
-0.032656 -0.008706 0.052889
-0.033178 0.004600 0.053413
-0.035160 0.009078 0.048143
-0.024948 0.013484 0.056180
-0.005413 0.001311 0.060857
-0.026052 0.017615 0.053811
-0.026362 0.021439 0.050640
-0.032510 0.017564 0.046085
-0.028191 0.024867 0.042730
-0.030072 0.024735 0.035918
-0.028985 0.024835 0.040509
-0.026313 0.027906 0.038528
0.054377 0.065510 -0.032056
-0.019974 -0.024647 0.050960
-0.011240 -0.011840 0.059784
-0.001624 -0.019349 0.056902
-0.003261 -0.018589 0.057482
-0.003612 -0.017362 0.058256
-0.033798 -0.020169 0.017878
-0.028691 -0.027283 0.025133
-0.027577 -0.027626 0.034230
-0.029636 -0.021146 0.046893
-0.028261 -0.021161 0.048966
-0.024253 -0.024673 0.048698
-0.010692 -0.030267 0.046638
0.096218 -0.035628 0.016883
0.099829 -0.035628 0.011270
0.101913 -0.035628 0.004929
0.101067 -0.034919 0.016034
0.080128 -0.028472 -0.036994
0.076047 -0.032327 -0.034677
0.093989 -0.025487 -0.033608
0.093003 -0.030774 -0.031764
0.105179 -0.025487 -0.024528
0.108562 -0.021420 -0.020974
0.088470 -0.035628 -0.023289
0.087563 -0.033910 -0.030280
0.098827 -0.034919 -0.019193
0.103246 -0.033910 -0.017555
0.111928 -0.030774 -0.002341
0.107802 -0.033910 0.006065
-0.033209 -0.004161 0.053447
-0.013549 0.009837 0.059949
-0.024250 0.021437 0.052029
-0.030540 0.021395 0.044555
-0.015311 -0.024588 0.051825
-0.007380 -0.014605 0.059309
-0.025855 -0.030006 0.023551
-0.026497 -0.021168 0.050764
-0.008057 -0.032432 0.043666
0.104309 -0.034919 0.009229
0.076047 -0.033527 -0.033084
0.108044 -0.025487 -0.020641
0.110950 -0.021420 -0.016687
-0.030743 -0.008716 0.054821
0.105736 -0.034919 0.001829
0.107299 -0.028472 -0.020162
0.110393 -0.025487 -0.016422
-0.031253 -0.004167 0.055395
0.109594 -0.028472 -0.016041
3 0 1 2
3 0 3 4
3 5 6 7
3 8 9 7
3 10 11 12
3 13 14 15
3 13 15 16
3 13 16 17
3 3 0 18
3 19 3 18
3 0 2 20
3 2 1 21
3 1 0 22
3 0 4 23
3 22 0 23
3 5 7 23
3 24 20 25
3 20 26 25
3 25 26 27
3 11 10 28
3 2 11 28
3 29 30 31
3 15 14 32
3 33 34 35
3 35 34 36
3 15 35 36
3 16 15 36
3 17 16 37
3 38 17 37
3 39 40 41
3 39 41 42
3 1 22 43
3 44 45 46
3 44 43 47
3 48 44 47
3 49 50 51
3 52 53 54
3 55 52 54
3 56 57 58
3 59 56 58
3 60 61 58
3 62 63 64
3 18 62 64
3 19 18 64
3 56 59 65
3 0 20 65
3 21 1 66
3 1 41 66
3 67 68 69
3 70 9 71
3 9 8 71
3 72 19 73
3 3 19 74
3 19 72 74
3 4 3 74
3 23 4 74
3 5 23 74
3 74 72 75
3 5 74 75
3 6 5 75
3 22 23 76
3 23 7 76
3 77 22 76
3 9 77 76
3 7 9 76
3 78 79 80
3 20 24 81
3 52 55 82
3 57 83 84
3 80 79 85
3 83 57 85
3 86 87 88
3 87 81 88
3 81 24 88
3 28 10 89
3 65 59 90
3 0 65 90
3 59 58 90
3 58 61 90
3 10 12 91
3 92 31 93
3 94 30 95
3 91 12 96
3 97 35 98
3 35 15 98
3 15 32 98
3 98 32 99
3 100 101 102
3 103 104 105
3 36 34 106
3 14 13 107
3 13 17 107
3 17 108 107
3 108 17 109
3 17 38 109
3 37 16 110
3 111 66 112
3 41 1 113
3 42 41 113
3 114 42 113
3 42 114 115
3 1 43 116
3 46 114 116
3 43 44 116
3 44 46 116
3 43 22 117
3 47 43 117
3 9 70 118
3 119 50 120
3 68 119 121
3 50 119 122
3 51 50 122
3 119 68 122
3 82 123 124
3 52 82 124
3 54 125 126
3 62 61 127
3 63 62 127
3 54 53 128
3 125 54 128
3 129 125 128
3 122 68 130
3 68 67 130
3 67 129 130
3 105 104 131
3 75 72 132
3 6 75 132
3 70 71 133
3 134 73 135
3 80 85 136
3 85 57 136
3 87 137 138
3 81 87 138
3 20 81 138
3 139 65 138
3 65 20 138
3 140 141 142
3 141 143 142
3 144 140 142
3 82 55 145
3 84 83 145
3 55 84 145
3 86 88 146
3 88 24 146
3 27 26 147
3 28 89 147
3 26 20 147
3 2 28 147
3 20 2 147
3 0 90 148
3 90 61 148
3 61 62 148
3 62 18 148
3 18 0 148
3 149 150 151
3 92 149 151
3 31 92 151
3 29 31 151
3 152 153 154
3 153 149 154
3 149 92 154
3 92 93 154
3 93 31 155
3 31 30 155
3 30 94 155
3 95 156 157
3 94 95 157
3 156 91 157
3 91 96 157
3 94 157 158
3 157 96 158
3 98 99 159
3 160 159 161
3 159 99 161
3 100 160 162
3 160 161 162
3 101 100 162
3 161 163 162
3 164 100 165
3 100 102 165
3 166 164 165
3 102 166 165
3 162 163 167
3 101 162 167
3 163 168 167
3 124 123 169
3 102 101 170
3 101 167 171
3 170 101 171
3 172 170 171
3 170 172 173
3 172 171 174
3 171 175 174
3 173 172 174
3 176 173 174
3 32 14 177
3 168 163 178
3 179 180 181
3 182 183 184
3 185 182 184
3 186 187 188
3 189 186 188
3 103 105 190
3 191 192 193
3 194 191 193
3 195 196 193
3 197 198 199
3 198 197 200
3 120 198 200
3 197 201 200
3 119 120 200
3 121 119 200
3 201 121 200
3 197 202 203
3 202 204 203
3 201 197 203
3 204 201 203
3 205 111 206
3 111 112 206
3 112 40 206
3 206 40 207
3 39 42 208
3 36 106 209
3 16 36 209
3 110 16 209
3 112 66 210
3 66 41 210
3 40 112 210
3 41 40 210
3 211 212 213
3 212 214 213
3 212 115 215
3 115 114 215
3 114 46 215
3 214 212 215
3 46 45 215
3 1 116 216
3 113 1 216
3 114 113 216
3 116 114 216
3 22 77 217
3 117 22 217
3 47 117 217
3 118 47 217
3 77 9 217
3 9 118 217
3 185 184 218
3 184 192 218
3 192 191 218
3 191 194 219
3 194 220 219
3 198 120 221
3 120 50 221
3 50 49 221
3 52 124 222
3 51 53 222
3 53 52 222
3 84 55 223
3 55 54 223
3 57 84 223
3 54 126 223
3 58 57 223
3 126 60 223
3 60 58 223
3 126 125 224
3 60 126 224
3 61 60 224
3 225 127 224
3 127 61 224
3 121 201 226
3 68 121 226
3 201 227 226
3 69 68 226
3 226 227 228
3 69 226 228
3 67 69 228
3 51 122 229
3 53 51 229
3 122 130 229
3 128 53 229
3 130 129 229
3 129 128 229
3 129 67 230
3 231 129 230
3 103 232 233
3 234 235 236
3 235 234 237
3 238 239 240
3 241 238 240
3 73 134 242
3 238 241 243
3 244 238 243
3 241 245 243
3 245 244 243
3 6 132 246
3 247 48 248
3 48 47 248
3 47 118 248
3 249 247 248
3 118 70 248
3 133 249 248
3 70 133 248
3 249 133 250
3 231 230 251
3 225 231 251
3 225 251 252
3 127 225 252
3 251 135 252
3 63 127 252
3 252 135 253
3 63 252 253
3 64 63 253
3 135 73 253
3 73 19 253
3 19 64 253
3 140 144 254
3 255 256 254
3 144 257 254
3 257 255 254
3 174 258 259
3 176 174 259
3 260 261 262
3 263 264 262
3 262 261 265
3 263 262 265
3 266 267 268
3 137 87 268
3 78 80 269
3 267 266 269
3 80 267 269
3 267 80 270
3 80 136 270
3 137 268 270
3 138 137 270
3 139 138 270
3 270 136 271
3 139 270 271
3 65 139 271
3 136 57 271
3 56 65 271
3 57 56 271
3 144 142 272
3 142 123 272
3 123 82 272
3 78 257 273
3 79 78 273
3 85 79 273
3 86 146 274
3 30 29 275
3 276 156 275
3 95 30 275
3 156 95 275
3 156 276 277
3 91 156 277
3 10 91 277
3 89 10 277
3 146 24 278
3 27 146 278
3 25 27 278
3 24 25 278
3 279 152 280
3 152 154 280
3 154 93 280
3 93 281 280
3 279 166 282
3 283 153 282
3 152 279 282
3 153 152 282
3 284 158 285
3 2 284 285
3 158 284 286
3 284 2 286
3 287 158 286
3 2 21 286
3 21 287 286
3 93 155 288
3 281 93 288
3 155 94 288
3 94 289 288
3 281 288 290
3 288 289 290
3 35 97 290
3 33 35 290
3 205 33 290
3 94 158 291
3 289 94 291
3 292 14 293
3 14 107 293
3 107 294 293
3 295 294 296
3 294 107 296
3 107 108 296
3 108 297 296
3 182 298 299
3 183 182 299
3 164 300 301
3 300 97 301
3 100 164 301
3 160 100 301
3 159 160 301
3 97 98 301
3 98 159 301
3 302 303 304
3 123 142 305
3 169 123 305
3 166 102 306
3 102 170 306
3 282 166 306
3 170 173 306
3 283 282 306
3 173 283 306
3 167 168 307
3 171 167 307
3 168 308 307
3 308 303 309
3 303 302 309
3 174 175 310
3 175 311 310
3 258 174 310
3 283 173 312
3 283 312 313
3 153 283 313
3 312 314 313
3 149 153 313
3 314 150 313
3 150 149 313
3 99 32 315
3 32 177 315
3 168 178 316
3 178 317 316
3 308 168 316
3 317 318 316
3 303 308 316
3 318 303 316
3 177 14 319
3 292 320 319
3 14 292 319
3 318 317 321
3 298 322 323
3 180 324 325
3 181 180 325
3 187 186 325
3 186 181 325
3 326 302 327
3 328 326 327
3 328 329 330
3 331 332 330
3 333 332 334
3 332 331 334
3 179 181 335
3 181 336 335
3 181 186 337
3 186 189 337
3 336 181 337
3 189 338 337
3 338 336 337
3 189 219 339
3 338 189 339
3 219 220 339
3 220 340 339
3 340 198 341
3 198 221 341
3 221 342 341
3 299 297 343
3 297 108 343
3 108 109 343
3 183 299 343
3 344 183 343
3 109 344 343
3 344 109 345
3 109 38 345
3 183 344 346
3 184 183 346
3 192 184 346
3 322 298 347
3 187 322 347
3 298 182 347
3 182 185 347
3 188 187 347
3 185 188 347
3 346 344 348
3 344 345 348
3 103 190 348
3 232 103 348
3 193 192 349
3 195 193 349
3 220 194 350
3 194 199 350
3 340 220 350
3 199 198 350
3 198 340 350
3 194 193 351
3 193 196 351
3 199 194 351
3 197 199 351
3 196 202 351
3 202 197 351
3 190 105 352
3 195 190 352
3 196 195 352
3 105 131 353
3 354 105 353
3 201 204 355
3 227 201 355
3 33 205 356
3 34 33 356
3 205 206 356
3 106 34 356
3 206 207 356
3 207 106 356
3 207 40 357
3 40 39 357
3 39 208 357
3 358 359 357
3 208 358 357
3 359 358 360
3 358 208 360
3 208 42 360
3 211 359 360
3 42 115 360
3 212 211 360
3 115 212 360
3 209 106 361
3 106 207 361
3 207 357 361
3 37 110 362
3 38 37 362
3 363 364 365
3 366 367 365
3 366 359 368
3 367 366 368
3 369 363 370
3 363 365 370
3 365 367 370
3 371 372 373
3 374 375 373
3 375 371 373
3 374 376 377
3 376 378 377
3 375 374 377
3 379 375 377
3 214 215 380
3 215 45 380
3 211 213 381
3 213 214 381
3 378 376 381
3 382 378 381
3 214 382 381
3 377 378 383
3 378 382 383
3 379 377 383
3 188 185 384
3 185 218 384
3 189 188 384
3 218 191 384
3 219 189 384
3 191 219 384
3 49 51 385
3 124 169 385
3 222 124 385
3 51 222 385
3 125 129 386
3 129 231 386
3 224 125 386
3 231 225 386
3 225 224 386
3 227 355 387
3 228 227 387
3 355 388 387
3 388 389 387
3 389 390 387
3 67 228 391
3 230 67 391
3 228 392 391
3 233 232 393
3 394 371 395
3 371 375 395
3 395 375 396
3 375 379 396
3 397 398 399
3 398 236 399
3 236 235 399
3 236 398 400
3 353 401 402
3 354 353 402
3 401 235 402
3 235 237 402
3 228 387 403
3 387 390 403
3 392 228 403
3 390 392 403
3 392 390 404
3 390 405 404
3 406 392 404
3 405 406 404
3 407 408 409
3 405 390 410
3 408 405 410
3 405 408 411
3 412 405 411
3 244 412 411
3 237 234 413
3 407 239 414
3 408 407 414
3 406 405 415
3 134 406 415
3 405 412 415
3 242 134 415
3 73 242 416
3 72 73 416
3 132 72 416
3 415 412 417
3 242 415 417
3 416 242 417
3 412 244 417
3 132 416 417
3 246 132 417
3 417 244 418
3 244 245 418
3 246 417 418
3 245 246 418
3 246 245 419
3 6 246 419
3 245 71 419
3 71 8 419
3 7 6 419
3 8 7 419
3 420 249 421
3 249 250 421
3 240 422 421
3 241 240 421
3 421 250 423
3 250 133 423
3 241 421 423
3 133 71 423
3 245 241 423
3 71 245 423
3 392 406 424
3 406 134 424
3 326 328 425
3 328 330 425
3 330 332 425
3 426 333 427
3 333 334 427
3 334 143 427
3 143 141 427
3 260 428 429
3 426 430 429
3 426 427 431
3 430 426 431
3 427 141 431
3 141 140 431
3 260 429 432
3 429 430 432
3 261 260 432
3 430 256 432
3 430 431 433
3 431 140 433
3 256 430 433
3 140 254 433
3 254 256 433
3 258 310 434
3 259 258 434
3 176 259 435
3 259 264 435
3 436 437 435
3 435 264 438
3 436 435 438
3 264 263 438
3 439 436 438
3 440 439 438
3 432 256 441
3 261 432 441
3 256 255 441
3 268 267 442
3 267 270 442
3 270 268 442
3 85 273 443
3 82 145 443
3 145 83 443
3 83 85 443
3 438 263 444
3 440 438 444
3 445 440 444
3 314 437 446
3 150 314 446
3 150 446 447
3 151 150 447
3 446 448 447
3 29 151 447
3 439 440 449
3 440 445 449
3 445 450 449
3 450 274 451
3 452 450 451
3 274 146 451
3 146 27 451
3 27 452 451
3 452 27 453
3 27 147 453
3 89 277 453
3 147 89 453
3 164 166 454
3 300 164 454
3 166 279 454
3 279 280 454
3 97 300 454
3 454 280 455
3 280 281 455
3 97 454 455
3 281 290 455
3 290 97 455
3 158 96 456
3 96 12 456
3 12 11 456
3 285 158 456
3 11 2 456
3 2 285 456
3 289 457 458
3 457 21 458
3 290 289 458
3 21 66 458
3 205 290 458
3 111 205 458
3 66 111 458
3 158 287 459
3 287 21 459
3 291 158 459
3 295 296 460
3 323 295 460
3 298 323 460
3 296 297 460
3 299 298 460
3 297 299 460
3 303 318 461
3 304 303 461
3 462 304 461
3 304 462 463
3 462 324 463
3 324 180 463
3 330 329 464
3 331 330 464
3 334 331 465
3 331 464 465
3 464 466 465
3 171 307 467
3 307 308 467
3 175 171 467
3 308 309 467
3 309 311 467
3 311 175 467
3 309 302 468
3 311 309 468
3 326 311 468
3 302 326 468
3 161 99 469
3 99 315 469
3 163 161 469
3 178 163 469
3 177 319 470
3 319 320 470
3 321 317 470
3 320 321 470
3 318 321 471
3 461 318 471
3 462 461 471
3 320 292 472
3 292 293 472
3 293 294 472
3 294 295 472
3 323 322 473
3 325 324 473
3 322 187 473
3 187 325 473
3 463 180 474
3 180 179 474
3 475 335 476
3 335 336 476
3 336 477 476
3 477 336 478
3 336 338 478
3 479 480 481
3 341 342 481
3 364 363 482
3 363 369 482
3 348 345 483
3 232 348 483
3 346 348 484
3 192 346 484
3 349 192 484
3 348 190 484
3 190 195 484
3 195 349 484
3 361 357 485
3 366 361 485
3 357 359 485
3 359 366 485
3 110 209 486
3 209 361 486
3 361 366 486
3 38 362 487
3 362 364 487
3 370 367 488
3 367 368 488
3 376 374 488
3 381 376 488
3 369 370 489
3 380 45 490
3 45 44 490
3 44 48 490
3 48 247 490
3 382 214 491
3 214 380 491
3 396 379 492
3 379 383 492
3 397 396 492
3 398 397 492
3 230 391 493
3 391 392 493
3 251 230 493
3 392 424 493
3 482 369 494
3 393 232 494
3 103 233 495
3 233 393 495
3 495 393 496
3 371 394 496
3 353 131 497
3 401 353 497
3 400 398 498
3 420 421 498
3 421 422 498
3 236 400 499
3 234 236 499
3 400 498 499
3 413 234 499
3 498 422 499
3 422 240 499
3 388 500 501
3 389 388 501
3 390 389 501
3 500 409 501
3 410 390 501
3 409 408 501
3 408 410 501
3 237 413 502
3 413 239 502
3 239 407 502
3 408 414 503
3 411 408 503
3 414 239 503
3 239 238 503
3 238 244 503
3 244 411 503
3 493 424 504
3 251 493 504
3 424 134 504
3 135 251 504
3 134 135 504
3 310 311 505
3 311 326 505
3 326 425 505
3 259 434 506
3 434 428 506
3 264 259 506
3 428 260 506
3 260 262 506
3 262 264 506
3 173 176 507
3 312 173 507
3 176 435 507
3 314 312 507
3 435 437 507
3 437 314 507
3 261 441 508
3 265 261 508
3 266 265 508
3 269 266 508
3 144 272 509
3 257 144 509
3 273 257 509
3 272 82 509
3 443 273 509
3 82 443 509
3 263 265 510
3 444 263 510
3 265 266 510
3 266 268 510
3 445 444 511
3 450 445 511
3 274 450 511
3 437 436 512
3 446 437 512
3 436 439 512
3 448 446 512
3 449 450 513
3 450 452 513
3 447 448 514
3 448 515 514
3 29 447 514
3 515 276 514
3 275 29 514
3 276 275 514
3 515 513 516
3 513 452 516
3 276 515 516
3 277 276 516
3 452 453 516
3 453 277 516
3 459 21 517
3 291 459 517
3 289 291 517
3 457 289 517
3 21 457 517
3 329 475 518
3 475 476 518
3 464 329 518
3 476 477 518
3 477 480 518
3 334 465 519
3 143 334 519
3 142 143 519
3 305 142 519
3 480 479 520
3 479 481 520
3 481 342 520
3 521 480 520
3 49 521 520
3 342 221 520
3 221 49 520
3 466 521 522
3 521 49 522
3 49 385 522
3 385 169 522
3 469 315 523
3 315 177 523
3 178 469 523
3 177 470 523
3 317 178 523
3 470 317 523
3 321 320 524
3 471 321 524
3 320 472 524
3 471 524 525
3 462 471 525
3 324 462 525
3 473 324 525
3 302 304 526
3 304 463 526
3 327 302 526
3 463 474 526
3 327 526 527
3 526 474 527
3 328 327 527
3 474 179 528
3 179 335 528
3 475 329 528
3 335 475 528
3 477 478 529
3 478 338 529
3 480 477 529
3 481 480 529
3 341 481 529
3 196 352 530
3 202 196 530
3 352 531 530
3 204 202 530
3 352 105 532
3 105 354 532
3 531 352 532
3 530 531 533
3 204 530 533
3 355 204 533
3 388 355 533
3 500 388 533
3 110 486 534
3 362 110 534
3 364 362 534
3 486 366 534
3 365 364 534
3 366 365 534
3 38 487 535
3 345 38 535
3 487 364 535
3 364 482 535
3 368 359 536
3 359 211 536
3 488 368 536
3 211 381 536
3 381 488 536
3 489 370 537
3 370 488 537
3 372 489 537
3 488 374 537
3 373 372 537
3 374 373 537
3 382 491 538
3 383 382 538
3 538 491 539
3 491 380 539
3 380 490 539
3 103 495 540
3 495 496 540
3 496 394 540
3 104 103 540
3 394 131 540
3 131 104 540
3 494 369 541
3 393 494 541
3 369 489 541
3 489 372 541
3 496 393 541
3 372 371 541
3 371 496 541
3 394 395 542
3 131 394 542
3 497 131 542
3 395 396 543
3 542 395 543
3 497 542 543
3 396 397 543
3 401 497 543
3 397 399 543
3 235 401 543
3 399 235 543
3 413 499 544
3 499 240 544
3 239 413 544
3 240 239 544
3 237 502 545
3 409 500 545
3 407 409 545
3 502 407 545
3 310 505 546
3 434 310 546
3 428 434 546
3 441 255 547
3 508 441 547
3 255 257 547
3 257 78 547
3 269 508 547
3 78 269 547
3 444 510 548
3 511 444 548
3 510 268 548
3 274 511 548
3 86 274 548
3 268 87 548
3 87 86 548
3 512 439 549
3 439 449 549
3 448 512 549
3 449 513 549
3 515 448 549
3 513 515 549
3 464 518 550
3 518 480 550
3 480 521 550
3 466 464 550
3 521 466 550
3 519 465 551
3 465 466 551
3 305 519 551
3 466 522 551
3 169 305 551
3 522 169 551
3 524 472 552
3 525 524 552
3 472 295 552
3 473 525 552
3 295 323 552
3 323 473 552
3 328 527 553
3 527 474 553
3 474 528 553
3 329 328 553
3 528 329 553
3 338 339 554
3 529 338 554
3 339 340 554
3 341 529 554
3 340 341 554
3 531 532 555
3 533 531 555
3 500 533 555
3 545 500 555
3 345 535 556
3 483 345 556
3 232 483 556
3 535 482 556
3 494 232 556
3 482 494 556
3 383 538 557
3 538 539 557
3 539 490 558
3 490 247 558
3 247 249 558
3 546 505 559
3 505 425 559
3 425 332 559
3 332 333 559
3 532 354 560
3 354 402 560
3 555 532 560
3 402 237 560
3 545 555 560
3 237 545 560
3 383 557 561
3 492 383 561
3 398 492 561
3 561 557 562
3 557 539 562
3 539 558 562
3 558 249 562
3 249 420 562
3 546 559 563
3 428 546 563
3 559 333 563
3 429 428 563
3 426 429 563
3 333 426 563
3 561 562 564
3 398 561 564
3 562 420 564
3 498 398 564
3 420 498 564
